<svg xmlns="http://www.w3.org/2000/svg" viewBox="0 0 1752 1862">
<g transform="translate(0.000000,1862.000000) scale(0.100000,-0.100000)"
fill="currentColor" stroke="none">
<path d="M2603 17694 c-50 -18 -95 -59 -125 -116 l-23 -43 -3 -690 c-2 -379 0
-710 3 -734 5 -35 17 -54 55 -92 l49 -49 286 0 287 0 37 27 c21 15 49 43 62
62 l24 36 3 706 c2 681 2 708 -17 752 -30 71 -85 124 -144 142 -71 21 -433 20
-494 -1z"/>
<path d="M13415 17692 c-38 -13 -58 -28 -86 -66 -72 -95 -70 -71 -67 -842 l3
-691 28 -36 c15 -20 43 -48 62 -63 l34 -26 283 -1 283 -2 32 24 c18 14 44 42
58 63 l25 38 0 718 0 718 -39 65 c-32 53 -48 69 -92 91 -54 28 -55 28 -264 27
-171 0 -219 -3 -260 -17z"/>
<path d="M1276 16839 c-49 -16 -101 -37 -115 -47 -14 -9 -33 -21 -42 -27 -57
-35 -82 -56 -148 -124 -87 -91 -149 -209 -187 -361 -19 -73 -19 -241 -19
-7095 0 -6706 1 -7023 18 -7085 10 -36 22 -74 26 -85 5 -11 17 -40 26 -64 19
-52 103 -176 154 -229 47 -48 207 -149 274 -172 28 -11 78 -24 111 -29 40 -8
2182 -11 6906 -11 l6847 0 106 34 c139 46 223 99 323 206 68 73 130 184 159
285 10 33 21 70 26 83 5 13 9 3000 9 7060 0 6252 -2 7046 -15 7116 -10 52 -32
114 -63 175 -40 81 -61 110 -138 186 -101 100 -154 133 -297 181 l-99 34 -398
0 -399 0 -3 -422 -3 -423 -31 -65 c-18 -36 -43 -80 -57 -99 -33 -43 -136 -121
-160 -121 -10 0 -32 -8 -50 -17 -28 -16 -68 -18 -345 -20 -296 -2 -317 -1
-380 19 -147 47 -224 122 -293 283 -22 51 -29 176 -29 508 l0 357 -4731 -2
-4731 -3 1 -360 c0 -198 -3 -388 -8 -422 -11 -74 -68 -193 -117 -245 -47 -50
-108 -91 -169 -113 -43 -16 -89 -19 -345 -21 -162 -2 -323 1 -357 6 -180 27
-314 174 -342 373 -6 45 -11 228 -11 432 l0 355 -407 0 -408 0 -89 -31z m6085
-868 c61 -23 146 -79 194 -126 43 -44 105 -136 105 -156 0 -10 4 -20 8 -23 21
-13 37 -128 37 -266 -1 -132 -3 -152 -29 -230 -16 -47 -38 -98 -50 -115 -59
-84 -181 -172 -299 -216 -111 -43 -302 -23 -422 42 -107 59 -166 125 -216 244
-62 148 -58 443 8 585 34 75 92 147 158 197 35 27 58 38 140 74 36 15 68 17
190 15 95 -2 132 -8 176 -25z m-1841 -16 c9 -16 27 -57 40 -90 12 -33 29 -73
35 -90 23 -54 65 -170 65 -179 0 -10 66 -199 80 -231 5 -11 14 -39 20 -62 6
-24 14 -43 18 -43 4 0 13 24 20 53 11 45 47 152 72 212 5 11 20 56 35 100 14
44 30 87 34 95 5 9 12 31 16 50 4 19 13 44 21 55 7 11 23 47 35 80 12 33 29
65 38 72 11 8 59 12 142 13 160 0 156 4 158 -145 1 -60 4 -119 6 -130 5 -27
20 -575 20 -745 l0 -135 -110 -2 c-60 -2 -115 1 -122 5 -8 5 -12 111 -15 369
-1 200 -7 362 -11 360 -8 -2 -22 -37 -94 -232 -14 -38 -32 -86 -40 -105 -22
-52 -29 -70 -48 -125 -10 -27 -26 -68 -35 -90 -9 -22 -22 -53 -29 -68 l-11
-28 -97 3 -97 3 -49 135 c-26 74 -52 144 -56 155 -5 11 -16 43 -26 70 -9 28
-20 59 -24 70 -23 56 -54 153 -58 177 -3 15 -11 33 -19 39 -12 10 -14 -24 -14
-222 -1 -365 -6 -500 -17 -507 -6 -4 -60 -7 -120 -7 l-108 0 4 560 c2 308 7
567 12 576 6 13 32 15 160 15 l152 -1 17 -30z m2743 21 c9 -5 17 -12 17 -17 0
-5 23 -46 50 -92 57 -92 54 -88 94 -148 43 -65 126 -209 126 -220 0 -5 5 -9
10 -9 6 0 10 -4 10 -10 0 -5 13 -31 29 -57 16 -27 42 -78 57 -115 15 -38 31
-68 36 -68 4 0 8 166 8 369 0 327 2 370 16 375 33 13 197 6 213 -8 14 -13 15
-73 11 -578 l-5 -563 -65 -2 c-36 -2 -93 0 -127 3 l-63 6 -77 121 c-71 112
-102 165 -171 287 -14 25 -50 86 -81 135 -59 94 -74 122 -91 168 -5 15 -15 27
-21 27 -9 0 -10 -90 -5 -357 4 -215 3 -364 -3 -372 -12 -19 -231 -17 -243 2
-12 19 -10 1125 2 1129 21 7 256 2 273 -6z m1862 5 c8 -14 15 -173 8 -199 -5
-21 -9 -22 -169 -22 l-164 0 -2 -462 -3 -463 -122 -2 c-88 -2 -124 1 -130 10
-4 6 -7 213 -8 459 0 245 -3 449 -6 453 -4 3 -73 6 -153 6 l-146 0 0 108 c0
78 4 111 13 114 24 10 876 7 882 -2z m532 -3 c4 -7 10 -107 13 -223 l5 -210
209 0 209 0 1 215 1 215 110 3 c61 2 120 0 133 -3 l22 -5 -2 -568 -3 -567
-115 -2 c-64 -1 -121 1 -127 5 -9 5 -13 77 -15 242 l-3 235 -210 0 -210 0 -5
-240 -5 -240 -119 -3 c-77 -1 -124 2 -133 9 -11 10 -13 109 -12 568 1 350 5
561 12 569 6 8 44 12 123 12 79 0 115 -4 121 -12z m4601 -1593 c9 -3 12 -38
12 -129 0 -68 -3 -131 -6 -140 -6 -14 -127 -16 -1275 -16 -1008 0 -1269 -3
-1269 -12 0 -7 -1 -206 -3 -443 l-2 -430 -148 -1 c-81 -1 -150 2 -152 6 -3 4
-5 204 -5 443 -1 270 -4 437 -10 439 -6 2 -579 2 -1275 0 l-1265 -2 0 -439 c0
-391 -2 -440 -16 -445 -9 -3 -81 -6 -160 -6 l-144 0 0 445 0 445 -1261 2
c-693 2 -1265 1 -1270 -3 -5 -3 -10 -200 -11 -445 l-3 -439 -155 0 -155 0 -3
440 c-2 241 -4 441 -6 442 -4 4 -2538 4 -2542 0 -2 -2 -4 -201 -6 -442 l-3
-440 -139 -3 c-93 -2 -143 1 -152 9 -12 9 -14 87 -14 445 l0 434 -1269 0
c-1148 0 -1269 2 -1275 16 -3 9 -6 69 -6 134 0 86 4 121 13 129 10 8 454 12
1623 13 2459 4 12337 -1 12352 -7z m-11556 -1423 l117 -3 0 -980 c-1 -729 -4
-981 -12 -986 -13 -8 -2517 -4 -2529 3 -5 3 -8 443 -8 978 0 761 3 975 12 984
10 10 256 12 1158 10 630 -2 1198 -4 1262 -6z m2986 -569 c2 -449 5 -573 15
-573 6 0 47 9 91 20 43 10 102 22 132 26 97 12 88 -39 90 553 1 418 4 524 14
537 13 14 120 15 1234 10 672 -3 1233 -5 1249 -6 l27 0 0 -540 c0 -297 1 -540
3 -540 30 -1 200 -45 250 -64 50 -19 69 -23 72 -14 3 7 6 272 8 588 l2 575
1225 0 c674 0 1242 -2 1263 -4 l37 -3 0 -983 c0 -928 -1 -983 -17 -987 -10 -2
-432 -3 -938 -2 -603 2 -924 -1 -932 -7 -9 -8 -7 -18 7 -44 23 -41 50 -141 50
-183 0 -33 18 -82 35 -94 5 -4 412 -8 903 -8 l892 0 0 -945 0 -945 -170 0
-170 0 0 -62 c0 -35 -9 -108 -20 -162 -11 -55 -17 -103 -12 -108 4 -4 88 -9
187 -10 l180 -3 0 -940 0 -940 -717 -3 c-395 -1 -718 -5 -718 -9 0 -8 19 -68
31 -98 4 -11 10 -42 13 -70 9 -75 22 -145 28 -150 3 -3 306 -6 674 -7 411 -1
674 -5 682 -11 9 -7 12 -215 12 -978 l0 -969 -1257 2 -1258 3 -5 170 c-4 142
-7 170 -20 170 -8 0 -81 -4 -162 -9 l-148 -8 -2 -164 -3 -164 -1259 0 c-693 0
-1262 2 -1264 5 -3 2 -4 72 -3 155 2 105 -1 156 -10 166 -9 11 -44 14 -165 14
l-154 0 -2 -173 c-3 -171 -3 -172 -25 -171 -13 0 -583 1 -1268 2 l-1245 2 0
980 0 981 463 -1 c254 0 550 -1 658 0 l196 0 7 63 c4 34 14 72 22 84 8 13 10
24 4 28 -11 7 -2 59 17 95 7 14 13 33 13 43 0 16 -40 17 -690 17 l-690 0 0
945 0 945 158 0 c87 0 161 2 164 5 3 3 -1 36 -10 73 -8 37 -17 111 -19 165
l-4 97 -145 0 -144 0 0 945 0 945 870 0 c849 0 870 0 880 19 5 11 10 34 10 52
0 35 11 83 42 176 11 34 18 68 16 75 -5 13 -167 15 -1265 17 l-553 1 0 984 c0
778 3 985 13 989 6 3 577 5 1267 4 l1255 -2 3 -572z m8572 -413 l0 -990 -102
0 c-57 0 -624 0 -1261 -1 -636 -1 -1160 0 -1163 3 -2 3 -5 446 -4 984 0 758 3
980 12 985 7 5 576 8 1265 9 l1253 0 0 -990z m-11445 -2277 l0 -943 -1260 0
c-968 0 -1264 3 -1273 12 -9 9 -12 231 -12 938 0 510 3 930 7 933 3 4 576 6
1272 5 l1266 -3 0 -942z m11432 939 c10 -6 13 -212 13 -942 l1 -935 -1266 -3
-1265 -2 -2 852 c-2 469 -2 895 0 946 l3 92 1252 0 c689 0 1258 -4 1264 -8z
m-11437 -3167 l0 -945 -202 0 c-112 0 -675 0 -1253 -1 -577 0 -1058 2 -1067 6
-17 7 -18 61 -18 939 0 513 3 936 7 939 3 4 575 7 1270 7 l1263 0 0 -945z
m11448 6 c1 -522 -2 -939 -7 -944 -11 -11 -2501 -11 -2512 0 -10 10 -14 1856
-5 1872 5 8 356 10 1264 9 l1257 -3 3 -934z m-11446 -1294 c3 -9 2 -1819 -1
-1925 l-1 -22 -1267 2 -1268 3 -3 955 c-1 525 0 965 3 977 l5 22 1264 0 c972
0 1265 -3 1268 -12z m11445 -1 c5 -6 7 -446 5 -978 l-2 -968 -1265 0 c-1005 0
-1265 3 -1265 13 0 6 0 443 -1 969 0 527 2 961 5 966 8 14 2514 12 2523 -2z
m-11449 -2298 c6 -17 8 -1799 3 -1873 -1 -13 -2290 -13 -2336 0 -72 20 -141
82 -177 160 l-23 50 -3 830 c-1 456 0 835 2 842 4 11 251 13 1266 13 l1260 0
8 -22z m2863 12 c19 -10 19 -29 19 -943 0 -513 -4 -937 -8 -944 -5 -8 -317
-11 -1267 -10 l-1260 2 -3 940 c-1 517 0 946 3 952 6 17 2485 19 2516 3z
m2865 -3 c6 -6 6 -1876 0 -1886 -3 -5 -538 -8 -1263 -7 l-1258 1 0 945 0 945
70 5 c78 6 2446 3 2451 -3z m2847 7 c16 -5 17 -59 17 -954 l0 -949 -1260 0
c-792 0 -1260 3 -1260 9 -3 346 1 1884 5 1890 6 9 2466 13 2498 4z m2879 -832
c-2 -911 0 -868 -59 -954 -14 -20 -50 -54 -80 -75 l-55 -38 -1165 -1 c-855 -1
-1166 1 -1169 10 -9 26 -9 1886 1 1890 6 3 577 5 1270 5 l1260 0 -3 -837z"/>
<path d="M7125 15780 c-53 -13 -79 -27 -110 -58 -60 -60 -76 -106 -100 -290
-6 -54 22 -216 46 -258 40 -73 60 -93 114 -118 93 -44 177 -30 255 44 75 71
94 132 94 305 1 152 -9 197 -63 280 -48 72 -156 116 -236 95z"/>
<path d="M7025 11473 c-85 -7 -169 -25 -214 -45 -115 -53 -227 -157 -314 -292
-165 -254 -231 -659 -168 -1026 14 -84 33 -173 41 -195 4 -11 15 -45 24 -75
21 -67 36 -103 94 -230 20 -45 122 -208 153 -245 74 -90 144 -154 229 -210 84
-55 115 -72 195 -105 35 -15 180 -31 226 -25 128 15 185 35 286 102 169 110
279 276 361 543 44 146 70 418 53 568 -23 205 -37 270 -97 442 -79 228 -183
400 -339 556 -98 100 -120 116 -205 157 -125 61 -235 88 -325 80z"/>
<path d="M9376 11469 c-244 -27 -423 -157 -633 -460 -84 -122 -177 -344 -212
-509 -28 -126 -31 -151 -42 -283 -15 -185 -2 -327 47 -532 8 -33 20 -71 26
-85 6 -14 14 -34 19 -45 71 -179 152 -294 276 -395 139 -112 278 -153 445
-131 99 13 158 34 254 88 87 49 110 68 203 163 205 208 330 477 401 865 31
163 10 553 -36 693 -30 93 -78 209 -101 244 -12 21 -23 40 -23 43 0 13 -81
113 -131 163 -99 99 -216 161 -334 177 -28 3 -59 7 -70 9 -11 2 -51 -1 -89 -5z"/>
<path d="M5415 9583 c-195 -15 -366 -140 -476 -350 -79 -154 -103 -272 -96
-493 6 -196 22 -309 57 -395 5 -11 16 -45 25 -75 19 -64 20 -67 74 -182 71
-152 144 -254 270 -377 139 -137 282 -217 448 -251 94 -19 272 -9 348 20 33
13 62 26 65 29 3 3 17 12 31 20 56 28 159 137 208 219 87 145 123 296 124 509
0 131 -20 300 -43 358 -4 11 -15 47 -25 80 -30 102 -94 237 -189 399 -25 44
-114 152 -186 228 -47 49 -165 138 -230 172 -130 69 -268 99 -405 89z"/>
<path d="M10930 9580 c-125 -15 -296 -97 -421 -200 -67 -54 -70 -58 -158 -155
-86 -96 -223 -322 -269 -445 -80 -215 -97 -310 -96 -535 1 -161 4 -190 27
-277 58 -216 191 -394 347 -465 126 -57 313 -71 455 -34 273 72 530 314 692
651 82 171 115 306 143 580 22 215 -47 504 -155 645 -142 188 -329 265 -565
235z"/>
<path d="M8080 8699 c-25 -5 -79 -17 -120 -25 -41 -8 -84 -19 -95 -24 -11 -4
-38 -15 -60 -24 -22 -10 -49 -22 -60 -28 -115 -66 -144 -83 -179 -109 -55 -40
-168 -151 -229 -224 -59 -70 -116 -158 -177 -270 -23 -44 -61 -107 -84 -140
-22 -33 -49 -76 -59 -95 -31 -56 -148 -217 -235 -320 -43 -52 -155 -167 -248
-255 -227 -214 -288 -276 -364 -370 -36 -44 -68 -82 -71 -85 -4 -3 -22 -30
-41 -60 -101 -158 -170 -347 -194 -533 -14 -111 -14 -131 1 -246 32 -239 110
-409 265 -574 97 -104 168 -155 317 -227 105 -51 192 -74 342 -92 128 -15 260
0 461 52 47 12 94 25 105 30 11 4 47 16 80 25 33 10 107 33 164 51 58 19 111
34 118 34 7 0 21 4 31 10 9 5 80 21 157 36 121 23 165 27 320 27 197 0 301
-14 490 -64 61 -15 121 -31 135 -35 14 -3 34 -9 45 -14 11 -4 47 -16 80 -25
64 -18 114 -33 155 -46 14 -4 57 -15 95 -24 39 -9 86 -20 105 -25 144 -37 390
-47 500 -21 197 46 376 149 521 298 185 190 274 422 273 708 -1 136 -7 176
-48 325 -39 145 -125 309 -215 410 -17 19 -48 56 -68 82 -21 26 -89 96 -152
155 -240 226 -361 347 -424 426 -170 211 -198 248 -255 342 -35 55 -67 107
-72 115 -5 8 -24 40 -42 70 -169 287 -257 402 -387 507 -141 114 -246 170
-411 218 -115 34 -380 53 -470 34z"/>
</g>
</svg>