<svg xmlns="http://www.w3.org/2000/svg" viewBox="0 0 1982 2000">
<g transform="translate(0.000000,2000.000000) scale(0.100000,-0.100000)"
fill="currentColor" stroke="none">
<path d="M5514 18064 c-102 -22 -208 -60 -268 -99 -187 -120 -342 -342 -460
-660 -14 -39 -26 -77 -26 -86 0 -8 -4 -19 -9 -24 -8 -9 -21 -58 -37 -135 -3
-14 -9 -34 -14 -45 -18 -40 -57 -272 -96 -575 -28 -217 -21 -552 16 -730 5
-25 16 -92 26 -150 9 -58 22 -134 30 -170 8 -36 20 -87 26 -115 6 -27 14 -61
18 -75 5 -14 15 -56 24 -95 9 -38 23 -101 32 -140 8 -38 24 -95 34 -125 10
-30 26 -82 36 -115 19 -65 87 -272 133 -406 16 -46 55 -165 86 -264 31 -99 60
-189 65 -200 37 -87 60 -195 60 -277 0 -26 3 -48 8 -48 4 1 34 7 67 15 33 9
125 18 205 21 133 6 186 2 328 -23 26 -4 32 -2 32 12 0 16 -42 155 -61 200
-23 58 -208 633 -230 720 -6 22 -15 56 -20 75 -10 40 -26 107 -39 165 -5 22
-16 69 -25 105 -33 132 -48 202 -81 370 -28 148 -34 187 -51 360 -12 121 -17
258 -17 445 1 422 44 675 152 895 54 112 188 280 223 280 6 0 23 9 38 19 30
22 159 51 224 51 25 0 80 -11 122 -25 258 -85 540 -301 860 -661 113 -128 123
-141 193 -244 31 -47 78 -113 104 -147 26 -34 48 -67 48 -72 0 -5 10 -22 23
-38 51 -62 160 -254 261 -458 112 -227 144 -303 198 -475 16 -52 34 -104 39
-115 5 -11 13 -38 18 -60 6 -22 15 -58 21 -80 18 -63 40 -165 50 -228 6 -33
12 -63 15 -67 3 -5 12 -100 20 -212 13 -177 13 -223 0 -358 -22 -242 -67 -395
-148 -505 -89 -121 -128 -168 -252 -305 -77 -85 -160 -180 -185 -210 -25 -30
-62 -74 -83 -96 -114 -124 -487 -696 -487 -747 0 -4 -12 -26 -27 -50 -75 -118
-90 -193 -58 -294 8 -26 19 -61 24 -78 6 -16 17 -68 26 -115 10 -47 21 -94 25
-105 8 -21 31 -113 49 -200 6 -27 17 -77 25 -110 8 -33 21 -107 30 -165 9 -58
21 -124 26 -148 13 -55 13 -163 0 -238 -41 -229 -61 -286 -143 -409 -54 -81
-98 -129 -184 -204 l-63 -54 -1 -136 c0 -127 -5 -175 -29 -291 -5 -25 -14 -72
-20 -105 -6 -33 -14 -67 -19 -75 -20 -39 -103 -322 -125 -425 -32 -154 -37
-186 -46 -332 -18 -290 10 -607 76 -843 51 -182 75 -260 96 -310 81 -198 138
-317 205 -435 91 -158 187 -302 348 -523 98 -134 263 -342 272 -342 3 0 48 28
101 63 54 35 117 74 142 87 88 47 140 82 140 96 0 8 -14 23 -32 34 -37 23
-179 191 -325 385 -110 147 -255 391 -307 517 -9 21 -22 53 -30 70 -39 92 -60
212 -60 358 -1 163 3 180 70 325 70 152 221 287 369 330 33 9 74 22 90 28 19
7 151 11 355 12 223 1 339 6 370 14 25 7 72 19 105 28 122 31 224 83 336 169
58 45 195 184 244 248 17 22 52 67 78 100 27 33 74 100 105 149 120 185 269
372 389 487 242 231 502 384 823 486 47 15 94 30 105 35 32 13 220 50 335 66
183 25 499 22 690 -8 36 -5 92 -14 125 -19 33 -5 87 -16 120 -25 33 -9 75 -20
93 -25 31 -8 69 -21 117 -40 201 -81 261 -108 320 -143 38 -23 77 -46 86 -52
9 -5 32 -19 50 -29 47 -26 239 -177 239 -187 0 -5 6 -9 13 -9 25 0 175 -158
264 -277 21 -29 47 -64 58 -78 25 -33 93 -130 160 -225 67 -96 199 -263 255
-323 45 -49 187 -171 225 -194 43 -26 140 -73 152 -73 8 0 21 -4 31 -9 25 -13
87 -31 161 -49 53 -12 125 -15 361 -14 333 2 409 -7 518 -61 173 -86 302 -244
363 -447 17 -55 18 -353 2 -396 -6 -16 -19 -56 -28 -89 -29 -102 -73 -206
-130 -304 -30 -51 -55 -97 -55 -101 0 -11 -204 -295 -254 -353 -22 -27 -66
-77 -96 -111 -30 -34 -98 -111 -150 -171 -127 -146 -422 -439 -538 -534 -96
-78 -301 -233 -482 -365 -90 -66 -297 -201 -407 -266 -32 -19 -276 -229 -377
-325 -44 -42 -156 -143 -172 -155 -67 -52 -134 -100 -139 -100 -3 0 -26 -15
-52 -34 -49 -34 -146 -82 -263 -131 -36 -15 -84 -36 -107 -46 -23 -10 -50 -19
-60 -19 -11 0 -23 -4 -29 -9 -5 -4 -40 -16 -79 -25 -38 -10 -83 -21 -100 -26
-27 -8 -121 -22 -328 -50 -101 -13 -331 -13 -432 1 -256 34 -437 75 -570 129
-16 7 -39 16 -50 20 -114 45 -336 167 -422 231 -53 39 -73 47 -73 29 0 -5 3
-10 8 -10 17 0 178 -287 205 -365 4 -11 12 -33 18 -50 22 -63 38 -142 39 -186
0 -42 3 -47 33 -61 62 -30 127 -54 212 -77 22 -6 63 -17 90 -25 71 -20 136
-33 245 -51 52 -9 118 -20 145 -26 64 -12 255 -26 320 -23 28 1 113 5 190 9
77 3 165 10 195 15 244 41 309 54 375 75 22 7 60 18 85 25 78 23 222 71 239
80 9 5 70 35 135 67 152 74 156 76 156 85 0 5 6 8 14 8 38 0 389 277 550 434
76 74 259 219 354 281 146 95 305 204 404 277 62 46 142 104 177 128 35 25 83
63 106 85 23 22 66 58 95 80 82 63 214 183 350 317 139 136 280 282 280 290 0
3 26 31 58 64 32 32 66 70 75 83 l16 24 21 -24 c55 -65 170 -219 170 -227 0
-5 7 -16 17 -23 9 -8 22 -27 30 -44 13 -28 61 -101 100 -153 51 -67 224 -413
284 -567 61 -154 108 -289 126 -355 7 -30 19 -71 24 -90 11 -36 31 -132 49
-230 33 -181 42 -243 56 -410 16 -198 17 -187 -32 -515 -15 -108 -40 -214 -63
-270 -5 -11 -14 -38 -21 -60 -28 -91 -102 -241 -166 -337 -25 -37 -90 -111
-144 -164 -108 -106 -201 -163 -339 -209 -111 -38 -201 -31 -162 10 13 15 59
155 66 205 4 25 11 50 15 55 4 6 15 62 24 125 10 63 23 138 29 165 15 65 15
449 0 501 -12 40 -30 125 -40 182 -3 18 -9 35 -14 38 -5 3 -9 14 -9 25 0 28
-86 196 -131 256 -76 101 -201 169 -371 203 -63 12 -186 -1 -245 -26 -17 -8
-36 -14 -41 -14 -6 0 -12 -3 -14 -7 -1 -5 -24 -18 -49 -31 -128 -64 -245 -221
-309 -412 -55 -163 -63 -411 -20 -620 32 -160 56 -233 115 -350 108 -216 162
-282 415 -508 42 -38 44 -41 29 -59 -9 -10 -25 -34 -34 -53 -34 -67 -229 -252
-370 -351 -63 -44 -191 -106 -265 -128 -147 -44 -337 -53 -464 -21 -43 11 -80
20 -82 20 -9 0 -3 30 9 42 36 37 155 256 198 363 33 85 67 225 80 335 17 138
18 203 3 315 -33 258 -154 451 -344 549 -63 33 -102 44 -225 65 -58 10 -190
-3 -250 -25 -190 -68 -347 -219 -400 -384 -10 -30 -22 -64 -26 -75 -14 -34
-39 -197 -39 -255 0 -67 27 -295 39 -330 5 -14 17 -52 27 -85 10 -33 22 -64
26 -70 4 -5 8 -15 8 -23 0 -8 23 -62 51 -121 52 -108 129 -220 206 -301 23
-25 43 -50 43 -56 0 -13 -136 -95 -215 -129 -33 -15 -73 -33 -90 -40 -136 -60
-404 -87 -546 -56 -65 15 -157 40 -184 51 -82 33 -114 47 -143 64 l-33 19 24
26 c66 72 168 242 202 336 10 28 22 55 25 60 4 6 10 21 13 35 3 14 12 52 20
85 42 165 47 452 11 590 -10 39 -29 90 -42 115 -14 25 -34 61 -45 79 -98 176
-256 280 -472 310 -83 12 -228 0 -249 -20 -6 -5 -16 -9 -24 -9 -21 0 -81 -29
-132 -64 -210 -144 -320 -373 -320 -666 0 -107 7 -155 37 -275 21 -82 106
-273 164 -367 47 -77 149 -211 170 -223 14 -9 -22 -27 -91 -45 -80 -21 -355
-18 -435 5 -33 9 -81 22 -107 29 -25 6 -50 14 -54 19 -4 4 -13 7 -20 7 -38 0
-393 184 -424 220 -3 3 -27 20 -55 38 -71 46 -306 254 -369 327 l-54 61 34 37
c30 32 34 43 34 91 0 50 -5 61 -62 146 -98 145 -110 162 -159 225 -25 33 -58
80 -74 105 -15 25 -39 57 -52 72 l-25 27 91 43 c50 24 91 47 91 51 0 5 -25 49
-55 98 -30 49 -55 91 -55 94 0 3 -25 45 -56 93 -87 133 -224 362 -224 372 0 4
-3 10 -8 12 -4 1 -32 46 -61 98 -45 79 -114 191 -253 415 -10 17 -21 38 -24
48 -4 9 -10 17 -15 17 -5 0 -9 5 -9 12 0 6 -25 51 -55 100 -30 48 -55 90 -55
93 0 3 -45 77 -100 165 -55 88 -100 162 -100 165 0 2 -18 34 -40 70 -22 36
-40 70 -40 75 0 6 -3 10 -8 10 -4 0 -16 17 -27 38 -11 20 -41 72 -67 114 -27
43 -48 80 -48 84 0 3 -11 20 -24 37 -13 18 -35 53 -50 80 -35 64 -171 283
-194 312 l-18 23 -56 -27 c-122 -58 -171 -71 -273 -71 -92 0 -115 5 -225 48
-109 43 -232 141 -309 246 -52 72 -166 255 -211 341 -21 40 -50 91 -64 114
-14 22 -26 47 -26 54 0 7 -4 17 -9 23 -10 10 -171 325 -171 335 0 4 -29 68
-65 143 -36 75 -65 139 -65 142 0 3 -20 48 -45 101 -25 52 -45 98 -45 100 0 6
-101 253 -125 308 -17 38 -71 184 -91 245 -8 25 -19 54 -23 65 -56 133 -179
520 -221 695 -5 19 -15 60 -23 90 -21 75 -46 177 -57 225 -5 22 -18 78 -29
124 -11 46 -25 129 -32 185 -17 142 3 265 65 391 36 74 59 104 123 165 87 84
90 86 190 135 40 20 75 40 78 45 3 5 -3 46 -14 92 -27 116 -61 256 -72 303 -6
22 -16 69 -24 105 -7 36 -25 110 -40 165 -15 55 -33 129 -41 165 -7 36 -18 81
-24 100 -6 19 -17 67 -25 105 -7 39 -25 115 -40 170 -14 55 -33 129 -42 165
-8 36 -19 81 -24 100 -4 19 -20 87 -34 150 -29 127 -32 140 -70 285 -14 55
-32 129 -40 165 -13 59 -27 121 -55 235 -5 22 -16 69 -24 105 -8 36 -20 83
-26 105 -6 22 -18 69 -26 105 -8 36 -19 81 -24 100 -18 70 -41 177 -61 280
-26 139 -23 132 -57 115 -15 -8 -80 -33 -143 -55 -207 -74 -507 -238 -648
-355 -283 -234 -451 -448 -580 -737 -12 -26 -21 -53 -21 -60 0 -8 -4 -18 -8
-23 -12 -13 -50 -146 -72 -250 -30 -141 -34 -214 -34 -545 -1 -190 5 -419 12
-510 28 -379 80 -830 133 -1145 5 -33 16 -100 24 -150 8 -49 19 -112 24 -140
5 -27 17 -88 25 -135 15 -83 21 -111 50 -235 16 -70 52 -214 66 -265 32 -118
45 -164 66 -240 14 -47 29 -101 34 -120 49 -188 164 -547 181 -564 5 -6 9 -20
9 -32 0 -13 4 -25 9 -28 5 -4 12 -24 16 -46 4 -22 11 -40 16 -40 5 0 9 -10 9
-23 0 -13 4 -27 9 -33 5 -5 18 -36 29 -69 11 -34 26 -74 33 -90 6 -17 15 -39
19 -50 21 -56 75 -186 97 -235 25 -55 38 -87 54 -125 16 -41 58 -133 104 -230
103 -219 148 -312 167 -350 57 -112 151 -288 188 -355 23 -41 60 -109 83 -150
22 -41 51 -91 64 -110 12 -19 23 -38 23 -42 0 -3 23 -43 51 -89 28 -45 62
-103 77 -128 62 -112 380 -614 445 -700 39 -53 95 -132 125 -176 31 -44 68
-96 84 -115 16 -19 33 -40 38 -47 5 -6 46 -63 91 -125 46 -62 117 -155 158
-206 42 -52 87 -109 101 -127 14 -17 45 -57 70 -87 311 -378 468 -536 680
-680 87 -60 303 -163 363 -175 18 -3 37 -9 42 -14 6 -4 35 -13 65 -18 30 -5
75 -15 100 -21 107 -25 290 -40 462 -38 l176 3 51 -70 c28 -39 64 -90 81 -115
114 -166 159 -226 276 -362 86 -101 143 -160 167 -171 35 -17 38 -17 94 7 l58
24 16 -25 c23 -35 167 -181 271 -274 94 -85 307 -247 367 -280 20 -11 59 -33
86 -50 83 -50 302 -149 329 -149 8 0 17 -4 20 -9 3 -5 18 -11 33 -14 35 -7
139 -32 223 -53 36 -8 128 -18 205 -21 174 -7 261 7 463 72 46 14 112 40 147
56 35 16 67 29 72 29 5 0 25 -11 45 -25 109 -74 286 -150 453 -194 67 -18 251
-41 325 -41 67 0 217 20 290 39 19 5 67 17 105 27 39 9 74 21 79 25 6 5 16 9
24 9 25 0 234 111 336 178 162 109 159 107 198 90 204 -92 503 -135 683 -98
33 6 92 18 130 26 165 34 367 136 552 281 103 80 245 219 303 298 25 33 47 62
50 65 3 3 20 28 38 57 50 78 48 77 191 74 160 -3 261 15 386 69 22 9 52 20 67
24 68 16 268 157 358 252 193 202 270 331 387 639 9 22 19 49 23 60 4 11 15
52 25 90 9 39 20 86 26 105 9 34 19 92 40 230 17 107 23 512 9 640 -14 135
-37 297 -51 360 -28 124 -76 293 -113 400 -13 36 -31 90 -40 120 -10 30 -21
64 -26 75 -5 11 -16 43 -26 70 -9 28 -21 54 -26 60 -4 5 -8 15 -8 23 0 19
-168 360 -231 470 -27 47 -49 86 -49 88 0 2 -46 73 -102 156 -119 179 -287
408 -300 408 -4 0 -8 7 -8 16 0 20 62 134 72 134 5 0 8 5 8 10 0 10 78 140 90
150 4 3 10 12 13 20 4 8 18 33 32 55 14 22 51 92 83 155 32 63 63 124 69 135
21 37 123 293 123 309 0 8 4 25 9 38 17 43 60 213 76 303 9 50 22 113 28 140
8 33 12 156 12 355 0 294 -1 310 -28 440 -15 74 -32 151 -37 170 -5 19 -18 71
-29 115 -26 102 -38 147 -61 215 -10 30 -26 91 -35 135 -9 44 -22 96 -28 115
-16 51 -15 596 1 680 7 36 20 101 28 145 33 168 124 373 215 480 152 179 143
169 329 340 178 165 307 292 329 324 14 20 28 38 31 41 17 12 177 259 189 290
7 19 17 44 22 55 19 43 58 163 73 220 33 135 38 233 31 570 -15 707 -12 830
25 975 22 84 79 271 100 325 13 36 28 89 35 125 3 19 10 44 15 55 27 63 120
345 120 364 0 6 9 30 19 54 36 79 103 332 166 627 9 41 20 93 26 115 45 190
79 478 85 725 5 213 -9 395 -46 605 -6 33 -13 71 -15 84 -7 49 -47 216 -56
239 -5 13 -9 34 -9 47 0 13 -4 27 -10 30 -5 3 -10 15 -10 25 0 20 -53 187 -90
280 -67 174 -192 367 -305 472 -46 43 -190 126 -259 149 -132 44 -317 63 -392
40 -16 -5 -54 -14 -84 -21 -67 -15 -158 -40 -185 -51 -11 -4 -40 -17 -65 -28
-25 -10 -68 -28 -95 -38 -44 -17 -268 -151 -348 -208 -329 -237 -672 -561
-939 -890 -126 -154 -202 -252 -234 -300 -18 -27 -56 -81 -83 -120 -60 -84
-249 -381 -285 -448 -14 -26 -37 -69 -52 -95 -37 -66 -152 -287 -181 -347 -13
-27 -33 -66 -43 -85 -63 -112 -360 -730 -360 -749 0 -5 -19 -46 -43 -92 -116
-227 -205 -339 -312 -394 -51 -26 -61 -27 -138 -21 -135 10 -245 31 -327 62
-34 13 -133 31 -315 59 -49 7 -119 18 -155 24 -36 6 -103 16 -150 21 -47 6
-121 14 -165 20 -268 32 -794 37 -1055 11 -166 -17 -363 -40 -440 -51 -41 -6
-122 -18 -180 -25 -151 -21 -252 -40 -360 -70 -52 -14 -136 -34 -186 -43 -80
-14 -101 -14 -159 -3 -140 28 -196 81 -329 311 -32 56 -221 438 -267 540 -38
84 -271 548 -299 595 -10 17 -38 68 -63 115 -65 124 -92 172 -121 218 -14 23
-26 43 -26 45 0 10 -109 193 -166 277 -109 163 -249 358 -291 408 -15 18 -46
56 -68 83 -22 28 -63 76 -91 107 -27 31 -87 100 -131 152 -161 188 -431 438
-678 625 -49 37 -91 72 -93 76 -2 5 -9 9 -15 9 -6 0 -60 31 -121 69 -330 204
-661 294 -902 245z m10574 -840 c88 -26 145 -60 204 -122 64 -67 124 -166 168
-277 18 -44 36 -89 40 -100 5 -11 16 -56 24 -100 9 -44 21 -102 26 -130 32
-161 53 -483 46 -705 -6 -183 -13 -265 -37 -435 -5 -38 -14 -101 -19 -140 -8
-63 -28 -153 -76 -340 -9 -33 -27 -107 -41 -165 -13 -58 -31 -132 -39 -165 -8
-33 -18 -78 -23 -100 -23 -96 -33 -133 -51 -186 -11 -30 -20 -63 -20 -71 0
-18 -55 -195 -68 -218 -5 -8 -17 -49 -27 -90 -10 -41 -21 -79 -25 -85 -4 -5
-19 -48 -34 -95 -14 -47 -30 -99 -36 -116 -33 -100 -51 -244 -44 -354 6 -98
17 -155 48 -260 13 -41 31 -104 41 -140 9 -36 21 -76 26 -90 13 -39 29 -163
29 -222 0 -69 -20 -220 -31 -233 -5 -5 -9 -16 -9 -25 0 -26 -97 -181 -143
-228 -53 -56 -135 -114 -262 -188 -146 -84 -265 -141 -310 -148 -72 -12 -144
44 -165 127 -6 23 -15 51 -19 62 -22 52 -217 437 -249 490 -52 87 -170 263
-207 310 -17 22 -40 54 -50 70 -20 33 -53 74 -136 174 -30 36 -64 77 -75 90
-10 13 -26 31 -34 40 -8 9 -25 30 -38 46 -13 17 -71 81 -129 142 -237 253
-307 388 -349 673 -20 138 -15 478 10 625 32 191 37 218 51 268 32 117 36 133
44 152 5 11 14 38 20 60 12 38 51 149 94 265 11 30 30 78 42 105 12 28 25 60
29 73 7 21 52 109 139 274 99 185 200 355 270 454 28 41 79 112 111 159 125
181 361 426 613 635 52 44 184 130 248 161 61 31 170 70 230 82 47 11 141 6
193 -9z m-11432 -4660 c24 -56 49 -188 38 -205 -3 -5 -27 -20 -52 -33 -112
-56 -153 -81 -246 -151 -228 -169 -397 -435 -460 -725 -10 -41 -21 -91 -26
-110 -5 -19 -11 -64 -13 -99 -3 -58 -7 -67 -37 -94 -31 -28 -37 -29 -94 -24
-89 8 -106 31 -106 141 0 139 18 257 58 376 88 266 195 452 353 609 63 64 258
221 274 221 4 0 21 10 38 22 32 23 226 125 240 127 4 1 19 -24 33 -55z m4019
-649 c118 -21 146 -29 234 -73 83 -42 189 -138 222 -204 12 -23 24 -67 26 -99
5 -55 5 -58 -32 -93 -20 -20 -45 -36 -54 -36 -19 0 -110 30 -163 53 -34 16
-139 52 -243 84 -90 27 -340 24 -448 -6 -172 -47 -395 -160 -515 -260 -71 -59
-129 -96 -165 -105 -23 -5 -29 -3 -37 19 -24 64 2 145 84 259 55 77 160 180
217 214 25 15 69 45 99 68 54 40 225 124 252 124 8 0 18 4 24 8 9 9 127 34
234 51 86 14 168 12 265 -4z m4846 4 c97 -12 229 -38 244 -49 6 -3 31 -14 57
-24 100 -37 288 -146 375 -218 92 -77 210 -230 240 -313 6 -16 10 -52 9 -80
-1 -46 -3 -50 -28 -53 -16 -2 -43 7 -67 22 -22 14 -43 26 -46 26 -3 0 -37 27
-77 60 -39 33 -92 70 -117 83 -25 12 -48 25 -51 28 -12 13 -152 78 -220 101
-175 61 -186 63 -360 63 -193 0 -221 -6 -425 -96 -104 -45 -154 -59 -183 -48
-53 19 -73 33 -94 67 -76 123 135 348 378 405 161 38 234 43 365 26z m-5081
-898 c70 -15 129 -30 148 -40 9 -5 35 -17 57 -27 22 -9 58 -29 80 -44 22 -15
59 -40 83 -55 98 -65 223 -235 275 -375 28 -76 41 -193 27 -247 -13 -55 -26
-73 -49 -73 -25 0 -44 22 -120 140 -68 104 -168 205 -238 240 -16 8 -39 22
-53 31 -30 20 -143 55 -223 70 -116 21 -315 -21 -428 -91 -27 -16 -53 -30 -57
-30 -10 0 -206 -202 -280 -288 -29 -34 -60 -62 -67 -62 -28 0 -38 40 -31 127
22 264 197 516 456 654 139 75 279 98 420 70z m5239 10 c20 -6 65 -17 101 -27
89 -23 156 -54 247 -114 96 -64 141 -106 202 -190 99 -135 151 -280 151 -418
0 -124 -12 -133 -82 -61 -28 30 -64 72 -80 94 -54 75 -203 201 -290 244 -45
23 -89 41 -99 41 -10 0 -20 4 -23 9 -3 5 -47 17 -98 26 -121 22 -237 11 -335
-31 -17 -8 -35 -14 -40 -14 -5 0 -43 -21 -84 -47 -82 -53 -211 -182 -252 -253
-15 -25 -46 -67 -70 -94 l-43 -49 -25 34 c-22 31 -24 44 -23 132 0 61 5 102
12 109 7 7 12 18 12 26 0 13 31 84 73 171 36 72 127 171 227 248 52 40 100 73
105 73 6 0 28 10 50 22 53 28 115 48 200 63 89 16 119 17 164 6z m-9743 -1119
c60 -33 84 -74 100 -169 7 -49 20 -117 29 -153 8 -36 24 -114 35 -175 22 -120
43 -224 67 -325 8 -36 19 -83 23 -105 18 -78 61 -261 71 -295 5 -19 14 -55 18
-80 5 -25 17 -72 26 -105 10 -33 19 -71 22 -85 2 -14 8 -34 13 -45 4 -11 13
-40 20 -65 36 -141 221 -682 270 -795 10 -22 21 -51 24 -65 4 -14 11 -34 16
-45 8 -18 27 -64 50 -120 5 -11 16 -38 25 -60 10 -22 21 -49 25 -60 5 -11 20
-45 33 -75 14 -30 29 -66 33 -80 8 -29 64 -149 175 -377 43 -88 79 -164 79
-168 0 -3 15 -29 33 -58 17 -29 48 -86 67 -127 19 -41 37 -77 40 -80 6 -6 33
-54 68 -122 15 -29 29 -55 32 -58 3 -3 17 -27 31 -55 43 -84 88 -165 160 -285
38 -64 69 -121 69 -126 0 -6 9 -19 21 -30 40 -36 244 -348 273 -417 32 -78
-20 -147 -110 -147 -45 0 -51 3 -105 59 -31 32 -68 76 -82 97 -13 22 -32 45
-41 53 -9 7 -16 17 -16 22 0 5 -29 50 -65 99 -36 49 -65 93 -65 96 0 4 -11 21
-24 38 -13 17 -33 49 -45 71 -12 22 -53 90 -91 150 -38 61 -70 116 -70 123 0
6 -4 12 -10 12 -5 0 -10 5 -10 10 0 6 -11 28 -25 50 -13 21 -42 72 -63 112
-62 117 -124 232 -132 243 -20 25 -140 260 -191 370 -17 39 -53 116 -80 171
-27 56 -49 105 -49 109 0 3 -12 32 -26 63 -30 67 -31 68 -84 197 -23 55 -49
116 -57 135 -8 19 -18 44 -23 55 -4 11 -12 31 -18 45 -5 14 -17 46 -27 72 -9
26 -21 50 -26 53 -5 4 -9 15 -9 26 0 10 -4 27 -9 37 -6 9 -19 46 -31 82 -11
36 -24 74 -29 85 -15 37 -53 150 -66 200 -7 28 -25 84 -38 125 -14 41 -32 102
-42 135 -24 84 -46 156 -56 180 -4 11 -12 40 -19 65 -6 25 -35 142 -66 260
-30 118 -61 253 -69 300 -9 47 -20 101 -25 120 -10 39 -38 190 -75 410 -9 52
-20 117 -25 143 -6 27 -10 87 -10 133 0 93 12 124 59 149 34 19 59 18 97 -3z
m10438 -5911 c112 -70 173 -220 195 -482 10 -114 -1 -286 -28 -437 -12 -64
-57 -215 -78 -261 -8 -18 -17 -48 -20 -65 -10 -66 -27 -59 -132 47 -190 194
-288 419 -316 727 -5 55 14 210 31 260 41 116 107 201 177 227 46 17 129 9
171 -16z m-1611 -866 c71 -29 122 -96 177 -230 22 -54 25 -214 5 -317 -10 -51
-22 -97 -26 -102 -5 -6 -9 -20 -9 -32 0 -13 -4 -26 -10 -29 -5 -3 -10 -13 -10
-21 0 -9 -11 -39 -24 -67 -13 -29 -33 -72 -44 -97 -22 -48 -114 -194 -129
-203 -15 -10 -150 168 -200 264 -126 244 -156 516 -73 673 42 81 74 117 134
148 60 32 151 37 209 13z m-1778 -186 c55 -26 120 -95 146 -157 43 -100 60
-258 38 -364 -25 -125 -42 -194 -49 -203 -4 -5 -11 -21 -16 -35 -15 -44 -125
-237 -155 -272 l-27 -33 -57 55 c-127 124 -223 298 -270 493 -24 97 -17 251
15 332 63 161 240 248 375 184z"/>
<path d="M5390 13249 c-72 -18 -222 -49 -240 -49 -11 0 -24 -9 -30 -20 -11
-21 -10 -25 35 -190 15 -52 30 -117 36 -145 12 -70 34 -168 54 -245 18 -71 27
-110 49 -215 8 -38 26 -119 41 -180 14 -60 30 -128 35 -150 11 -53 48 -202 59
-240 6 -16 17 -61 26 -100 9 -38 20 -86 25 -105 5 -19 16 -64 24 -100 9 -36
33 -141 56 -235 22 -93 45 -190 50 -215 6 -25 19 -83 31 -130 12 -47 25 -103
29 -125 13 -63 32 -128 41 -147 5 -10 9 -25 9 -35 0 -17 21 -111 44 -198 23
-86 47 -188 57 -242 5 -29 13 -63 18 -76 l10 -24 50 17 c28 9 54 20 58 24 3 3
14 6 24 6 36 0 202 61 276 102 114 62 204 161 257 281 27 61 56 191 56 251 0
44 -63 352 -100 496 -5 19 -16 62 -24 95 -8 33 -22 89 -31 125 -9 36 -20 83
-25 105 -9 38 -31 131 -50 205 -5 19 -16 67 -25 105 -9 39 -20 86 -25 105 -5
19 -13 53 -19 75 -24 96 -132 540 -156 645 -14 63 -34 138 -43 165 -37 115
-155 253 -259 304 -26 12 -56 27 -66 32 -55 29 -284 47 -357 28z"/>
<path d="M10805 9909 c-93 -8 -182 -23 -280 -48 -22 -5 -60 -15 -85 -21 -137
-34 -344 -155 -441 -258 -106 -112 -155 -191 -191 -307 -21 -71 -22 -110 -4
-188 37 -152 167 -275 324 -306 72 -15 109 -14 171 5 77 22 118 65 135 140 13
57 12 65 -6 107 -14 33 -18 57 -14 81 6 30 12 37 44 46 118 31 222 -84 222
-246 0 -66 -4 -86 -34 -148 -40 -81 -55 -100 -112 -139 -54 -37 -129 -56 -247
-64 -93 -6 -97 -7 -91 -27 23 -76 195 -235 412 -380 169 -113 207 -154 215
-236 10 -89 1 -151 -40 -279 -27 -85 -63 -147 -137 -235 -196 -233 -604 -491
-951 -601 -27 -9 -59 -20 -70 -25 -20 -8 -111 -28 -231 -49 -78 -14 -307 -14
-393 0 -201 32 -410 113 -578 222 -94 60 -282 226 -380 336 -132 146 -293 386
-293 436 0 21 47 41 110 48 85 8 110 21 110 56 0 95 -171 159 -348 132 -109
-17 -175 -59 -244 -154 -57 -80 -78 -135 -85 -225 -5 -67 -4 -75 18 -98 30
-32 49 -27 136 32 l67 46 18 -24 c9 -13 18 -30 18 -39 0 -8 4 -19 8 -25 5 -5
19 -38 32 -74 26 -73 56 -142 104 -245 19 -38 43 -90 54 -115 12 -25 28 -56
36 -70 9 -14 46 -81 84 -150 38 -69 96 -168 129 -220 69 -109 74 -112 228
-129 178 -19 319 -83 459 -207 50 -45 105 -99 122 -120 33 -42 180 -278 212
-341 23 -43 53 -73 97 -95 137 -68 192 -91 275 -118 52 -17 102 -34 110 -37 8
-4 35 -13 59 -22 46 -17 47 -17 153 -211 77 -139 221 -301 348 -391 62 -44
218 -128 305 -164 22 -10 49 -21 60 -26 23 -10 139 -41 265 -71 128 -31 414
-30 560 1 249 54 279 62 286 72 3 5 13 9 22 9 18 0 148 52 223 90 65 33 179
121 257 198 97 97 204 252 282 406 16 32 34 64 40 71 14 17 96 44 157 52 27 3
59 14 73 23 14 10 42 20 64 24 21 4 47 12 57 17 11 5 28 14 39 19 11 6 25 10
30 10 6 0 48 18 93 39 45 22 125 59 177 84 104 50 268 160 412 278 109 90 163
141 231 224 28 33 58 65 67 72 9 6 45 50 81 98 35 47 80 107 100 133 36 47
119 178 119 188 0 3 11 20 25 38 14 18 25 36 25 40 0 3 11 23 23 44 38 60 77
132 77 142 0 5 25 60 55 123 30 62 55 117 55 120 0 4 9 26 20 50 10 23 26 65
35 92 35 109 63 152 80 125 12 -19 142 -100 161 -100 11 0 29 6 40 14 17 13
19 26 17 110 -2 87 -5 101 -34 153 -59 107 -137 181 -229 218 -60 23 -210 23
-283 -1 -87 -29 -121 -55 -131 -101 -9 -40 20 -73 64 -73 58 0 170 -32 170
-49 0 -5 -33 -58 -73 -118 -66 -98 -112 -160 -226 -309 -62 -81 -230 -226
-386 -334 -66 -46 -202 -113 -295 -145 -41 -15 -84 -30 -95 -35 -11 -5 -54
-15 -95 -24 -299 -60 -516 -48 -803 45 -99 32 -116 39 -282 119 -211 102 -535
336 -663 479 -128 142 -163 235 -169 446 -3 128 -3 131 25 169 15 21 36 44 47
50 11 6 24 16 30 22 5 6 37 29 70 51 187 123 248 168 319 234 75 70 136 148
136 175 0 7 -34 14 -99 18 -186 14 -283 57 -342 154 -52 86 -59 108 -59 196 0
71 4 87 29 131 34 58 65 87 111 103 48 17 84 15 111 -7 l23 -19 -18 -77 c-32
-136 -6 -196 108 -250 120 -57 290 -13 406 105 64 66 97 127 110 206 22 136
-43 321 -157 442 -29 31 -53 60 -53 64 0 4 -17 16 -37 27 -21 11 -51 32 -68
46 -45 41 -260 141 -350 165 -212 56 -468 78 -680 59z m440 -225 c115 -20 177
-38 243 -71 43 -21 52 -31 52 -52 0 -34 -25 -44 -155 -66 -143 -24 -706 -24
-850 0 -105 17 -125 26 -125 56 0 40 131 105 265 130 146 28 419 29 570 3z
m-605 -3121 c75 -27 151 -82 181 -133 24 -39 28 -60 34 -155 11 -209 46 -498
67 -570 14 -47 59 -116 72 -112 19 6 46 53 55 97 33 146 61 416 61 586 0 133
22 182 108 236 91 56 142 70 267 71 120 0 159 -8 351 -77 157 -57 314 -164
314 -215 0 -10 5 -22 11 -28 20 -20 1 -271 -28 -363 -6 -19 -24 -75 -38 -125
-15 -49 -38 -114 -51 -143 -13 -29 -24 -55 -24 -57 0 -6 -60 -103 -103 -165
-40 -60 -146 -169 -227 -235 -155 -125 -430 -206 -702 -207 -112 0 -265 15
-323 32 -268 77 -335 113 -490 265 -117 115 -166 180 -231 305 -40 78 -89 207
-104 275 -5 22 -16 69 -25 105 -10 40 -17 111 -18 185 -2 129 1 141 62 209 84
92 372 224 526 240 75 8 204 -3 255 -21z"/>
<path d="M7929 6130 c-69 -21 -176 -72 -246 -117 -29 -18 -57 -33 -63 -33 -5
0 -10 -4 -10 -9 0 -5 -12 -12 -27 -16 -48 -12 -55 -24 -34 -54 10 -14 33 -55
51 -90 18 -36 54 -100 81 -143 27 -43 49 -81 49 -84 0 -3 16 -28 35 -54 19
-26 35 -50 35 -53 0 -7 83 -149 110 -187 9 -14 32 -52 50 -85 18 -33 44 -79
57 -102 13 -24 50 -85 83 -138 33 -52 60 -98 60 -103 0 -5 11 -19 25 -32 14
-13 25 -27 25 -32 0 -5 49 -87 109 -182 60 -96 123 -201 141 -233 17 -32 55
-96 84 -143 84 -136 206 -340 206 -345 0 -2 33 -57 73 -122 93 -153 93 -152
189 -322 45 -78 88 -145 95 -148 17 -7 189 108 283 189 42 36 86 84 99 109
112 208 122 238 121 395 0 78 -5 136 -15 169 -19 60 -97 215 -130 260 -14 17
-25 35 -25 39 0 3 -103 173 -230 376 -126 203 -230 372 -230 374 0 3 -34 60
-75 125 -41 66 -75 123 -75 126 0 3 -18 30 -40 59 -22 29 -40 56 -40 59 0 4
-16 31 -35 61 -19 30 -35 57 -35 60 0 3 -21 40 -47 83 -75 125 -192 263 -223
263 -5 0 -10 4 -10 8 0 10 -71 45 -125 62 -22 7 -50 16 -63 21 -41 16 -222 9
-283 -11z"/>
</g>
</svg>