<svg xmlns="http://www.w3.org/2000/svg" viewBox="0 0 904 1408">
<g transform="translate(0.000000,1408.000000) scale(0.100000,-0.100000)"
fill="#3E363F" stroke="none">
<path d="M4940 13101 c-180 -57 -314 -193 -350 -356 -6 -27 -10 -100 -9 -162
1 -63 0 -115 -2 -117 -42 -33 -180 -155 -229 -202 -36 -35 -82 -76 -102 -92
-21 -16 -118 -106 -215 -199 -220 -210 -227 -217 -338 -316 -49 -45 -159 -149
-244 -232 -85 -82 -162 -157 -171 -165 -142 -130 -234 -213 -272 -247 l-47
-43 -423 4 c-469 5 -889 -2 -910 -15 -15 -10 128 -157 465 -480 l208 -199
2761 0 2762 0 155 153 c487 476 521 511 506 526 -11 12 -122 14 -666 15 l-652
1 -41 39 c-23 22 -66 62 -96 89 -72 65 -313 291 -365 342 -23 22 -85 81 -139
130 -54 50 -155 144 -225 211 -202 193 -442 417 -501 469 -30 26 -82 73 -115
104 -33 31 -75 69 -94 85 l-34 28 -1 126 c-1 105 -5 137 -23 186 -92 243 -365
389 -593 317z m556 -888 c149 -144 365 -346 392 -366 15 -12 59 -51 97 -87 39
-37 104 -98 145 -136 295 -271 680 -639 678 -646 -2 -6 -107 -8 -253 -6 -138
1 -919 1 -1737 -1 -1283 -3 -1488 -2 -1488 11 0 8 37 47 83 87 109 98 305 280
447 416 63 61 144 137 180 170 36 32 97 89 135 126 39 36 90 83 115 104 25 21
107 97 183 169 77 72 159 150 184 174 25 23 49 42 54 42 5 0 44 -22 87 -49
129 -80 225 -103 348 -82 74 13 178 62 235 111 19 16 36 29 39 30 3 0 37 -30
76 -67z"/>
<path d="M1456 10768 c-3 -17 -6 -2112 -6 -4655 -1 -4044 1 -4626 14 -4638 8
-8 18 -15 21 -15 12 0 647 644 654 663 4 10 7 1817 6 4016 l-1 3998 -334 332
c-184 182 -338 331 -341 331 -4 0 -9 -14 -13 -32z"/>
<path d="M8311 10473 l-331 -331 0 -4008 0 -4007 153 -152 c83 -84 233 -234
331 -335 178 -181 179 -182 192 -157 15 28 15 47 15 5688 -1 3026 -3 3598 -15
3614 -12 17 -38 -6 -345 -312z"/>
<path d="M4530 8719 c-47 -5 -98 -14 -114 -19 -16 -6 -40 -10 -54 -10 -14 0
-39 -4 -56 -9 -17 -5 -60 -17 -96 -27 -36 -9 -78 -22 -95 -29 -16 -6 -46 -18
-65 -25 -66 -23 -132 -54 -218 -102 -18 -10 -70 -26 -115 -35 -45 -8 -102 -27
-127 -42 -80 -46 -193 -137 -275 -221 -44 -46 -114 -112 -155 -149 -334 -294
-529 -513 -570 -638 -16 -53 -2 -131 38 -202 14 -25 34 -61 44 -79 91 -162
276 -349 483 -486 246 -163 361 -260 480 -401 100 -119 154 -173 215 -211 60
-37 163 -40 226 -7 80 42 155 136 202 253 71 172 68 515 -8 900 -4 25 -16 86
-25 135 -9 50 -21 110 -25 135 -36 187 -46 334 -31 450 13 97 20 120 64 209
48 97 176 215 203 188 3 -3 -1 -20 -10 -39 -8 -18 -26 -71 -40 -118 -70 -238
-65 -371 33 -850 10 -46 19 -96 46 -255 9 -49 21 -117 28 -150 16 -84 16 -436
-1 -500 -59 -222 -80 -275 -144 -370 -67 -99 -170 -168 -295 -199 -79 -20
-129 -20 -206 0 -131 34 -203 84 -311 217 -128 158 -195 221 -353 331 -131 92
-173 117 -173 103 0 -27 -104 -407 -144 -529 -65 -194 -90 -256 -166 -410 -66
-132 -92 -173 -200 -308 -42 -52 -83 -107 -93 -122 -16 -26 -17 -119 -17
-1422 0 -767 3 -1401 6 -1410 6 -15 162 -16 1675 -16 l1668 0 14 28 c8 15 20
45 26 67 7 22 16 49 21 60 12 30 55 162 74 230 10 33 22 70 27 83 5 13 9 33 9
44 0 12 4 35 9 52 11 37 38 158 45 201 2 17 12 64 22 105 14 59 18 118 18 280
0 210 -3 238 -58 485 -13 61 -48 181 -74 255 -58 165 -114 361 -144 510 -19
94 -15 393 6 494 22 103 50 185 89 260 18 34 34 65 36 70 6 14 -51 -1 -115
-30 -219 -102 -381 -297 -505 -608 -22 -56 -45 -112 -51 -126 -21 -50 -27 -66
-43 -125 -23 -83 -52 -145 -68 -145 -36 0 -26 346 12 460 10 30 26 80 35 110
40 134 110 267 187 355 55 62 200 179 249 199 89 36 93 45 27 62 -94 25 -248
113 -286 165 -28 37 -30 83 -5 130 13 27 20 30 45 25 16 -3 57 -23 91 -45 95
-59 152 -82 293 -119 203 -53 436 -40 655 38 36 12 70 26 75 30 6 4 20 11 33
15 60 18 280 172 402 280 72 64 92 85 161 170 63 76 111 112 95 69 -4 -11 -11
-40 -16 -65 -26 -134 -162 -331 -315 -454 -72 -59 -153 -115 -165 -115 -6 0
-10 -6 -10 -13 0 -11 23 -11 128 0 154 15 240 44 327 110 55 42 155 157 155
177 0 4 11 31 25 61 39 85 72 228 90 385 23 205 34 265 62 345 22 62 23 74 12
113 -6 23 -23 51 -36 62 -54 42 -174 34 -240 -16 -29 -22 -42 -49 -57 -114 -7
-36 -59 -64 -103 -57 -66 11 -150 100 -155 164 -4 66 2 84 50 132 66 68 133
91 263 92 54 0 101 5 104 10 11 17 -347 168 -605 256 -58 19 -109 39 -114 44
-6 5 -16 9 -22 9 -25 0 -190 83 -240 120 -61 46 -91 90 -100 148 -6 37 -4 42
12 42 11 0 50 -20 87 -45 l67 -46 10 26 c22 57 2 176 -41 251 -77 133 -334
385 -476 464 -32 19 -75 47 -96 63 -72 56 -300 121 -517 147 -355 43 -576 55
-720 39z m1062 -950 c43 -46 118 -156 118 -174 0 -17 -108 -66 -159 -71 -25
-3 -89 2 -141 11 -52 9 -126 20 -165 25 -70 9 -105 18 -105 27 0 12 111 108
175 152 93 63 140 82 193 77 36 -3 51 -11 84 -47z"/>
<path d="M2247 1933 c-28 -27 -179 -175 -335 -331 -238 -237 -282 -285 -272
-297 11 -13 426 -15 3434 -13 3268 3 3421 4 3424 21 3 12 -93 113 -310 328
-172 171 -322 317 -333 325 -17 12 -420 14 -2788 14 l-2768 0 -52 -47z"/>
</g>
</svg>