<svg xmlns="http://www.w3.org/2000/svg" viewBox="0 0 1820 1862">
<g transform="translate(0.000000,1862.000000) scale(0.100000,-0.100000)"
fill="#3E363F" stroke="none">
<path d="M9445 16505 c-94 -15 -126 -24 -180 -55 -44 -24 -179 -129 -235 -182
-38 -35 -281 -253 -339 -303 -19 -17 -66 -58 -105 -93 -39 -35 -102 -89 -141
-120 -38 -31 -104 -89 -145 -128 -41 -39 -100 -93 -130 -120 -30 -27 -57 -51
-60 -54 -3 -3 -18 -16 -35 -28 -16 -13 -52 -45 -80 -71 -27 -26 -90 -81 -140
-121 -49 -41 -126 -108 -170 -150 -87 -81 -178 -164 -216 -194 -21 -17 -157
-134 -269 -231 -19 -16 -69 -62 -110 -100 -109 -102 -192 -177 -375 -340 -50
-44 -92 -82 -95 -85 -3 -3 -34 -30 -70 -60 -36 -30 -90 -78 -120 -107 -74 -70
-383 -333 -391 -333 -4 0 -9 177 -12 393 -6 403 -13 478 -51 559 -42 88 -134
148 -253 167 -99 15 -1132 15 -1205 0 -29 -6 -57 -15 -63 -19 -5 -4 -22 -10
-37 -14 -14 -3 -49 -24 -77 -46 -57 -46 -100 -121 -119 -210 -9 -40 -13 -387
-14 -1262 l-3 -1207 -45 -47 c-43 -44 -246 -230 -431 -394 -46 -41 -109 -98
-139 -125 -30 -28 -93 -84 -140 -125 -79 -70 -169 -151 -230 -210 -15 -14 -44
-40 -66 -59 -21 -19 -66 -59 -100 -90 -34 -31 -81 -72 -105 -91 -57 -46 -216
-188 -224 -200 -3 -5 -106 -96 -228 -202 -251 -218 -418 -376 -478 -454 -123
-160 -144 -401 -51 -579 58 -110 138 -188 247 -241 108 -52 184 -65 318 -53
159 15 256 78 547 354 220 209 328 305 342 305 10 0 13 -126 11 -612 -5 -2131
-5 -6267 1 -6338 18 -202 64 -389 128 -513 16 -33 28 -60 26 -62 -2 -1 -129
-5 -283 -8 -496 -10 -959 -27 -1000 -38 -104 -27 -182 -102 -220 -211 -47
-134 28 -307 166 -383 l54 -30 715 3 c393 1 747 5 785 7 435 26 10381 26
10425 0 3 -2 566 -5 1252 -6 l1246 -3 66 33 c121 59 182 164 174 301 -8 134
-79 236 -196 281 -52 20 -83 22 -357 30 -165 4 -354 10 -420 13 -66 3 -215 6
-332 6 l-212 0 48 103 c27 56 56 131 65 167 10 36 21 79 26 95 38 136 39 296
32 5250 -1 1012 -2 1857 -2 1878 0 37 1 37 24 25 14 -7 92 -76 173 -154 134
-127 195 -183 307 -283 59 -52 187 -141 231 -161 95 -42 111 -45 230 -45 100
0 131 4 188 23 169 59 306 208 353 387 17 61 18 185 3 257 -33 154 -104 238
-484 571 -132 116 -272 240 -310 276 -71 67 -89 83 -250 226 -50 44 -92 83
-95 86 -3 3 -30 27 -60 54 -30 26 -80 71 -110 99 -53 50 -218 197 -290 259
-19 17 -75 67 -125 112 -49 44 -119 105 -155 135 -80 68 -86 74 -146 132 -27
25 -70 63 -95 85 -25 21 -106 92 -180 158 -74 66 -150 133 -169 150 -19 16
-86 77 -150 135 -130 119 -140 128 -341 306 -229 203 -350 309 -505 444 -162
142 -378 335 -474 424 -109 102 -321 290 -395 352 -38 32 -124 108 -190 169
-66 61 -136 124 -156 140 -20 17 -86 75 -146 130 -249 226 -392 355 -468 420
-44 38 -82 72 -85 75 -3 3 -45 41 -95 85 -49 44 -92 82 -95 85 -3 3 -39 34
-80 70 -41 35 -151 135 -245 220 -93 85 -208 189 -255 230 -128 113 -168 149
-240 216 -36 33 -119 107 -185 164 -66 58 -122 107 -125 110 -3 3 -52 45 -110
95 -58 49 -136 120 -175 156 -67 64 -208 183 -288 242 -58 43 -162 87 -244
103 -41 8 -78 13 -81 13 -4 -1 -43 -7 -87 -14z m136 -1324 c24 -16 62 -46 84
-66 99 -92 219 -200 330 -295 66 -56 161 -140 210 -185 50 -45 108 -97 130
-116 22 -18 69 -60 105 -94 36 -33 99 -90 140 -125 41 -36 106 -94 145 -130
39 -36 122 -110 184 -165 62 -55 127 -113 145 -129 17 -15 72 -62 121 -104 50
-42 115 -99 145 -128 30 -28 73 -67 95 -85 22 -18 81 -70 130 -114 50 -44 119
-105 155 -135 36 -30 67 -57 70 -60 17 -17 126 -114 185 -165 38 -33 106 -94
150 -135 44 -41 112 -102 150 -135 58 -50 167 -147 185 -165 20 -20 157 -144
366 -331 40 -35 139 -125 221 -199 258 -233 398 -358 440 -392 22 -18 100 -87
173 -153 73 -66 158 -142 189 -169 31 -26 74 -65 96 -85 147 -135 405 -370
485 -440 173 -154 450 -426 465 -456 27 -55 35 -138 45 -441 15 -462 23 -6723
10 -7024 -13 -269 -21 -312 -84 -424 -55 -98 -129 -165 -223 -205 -70 -29
-135 -40 -268 -47 -60 -3 -188 -9 -284 -15 -95 -5 -348 -9 -562 -9 l-389 0 0
83 c0 144 -35 279 -99 382 -108 173 -241 255 -494 305 -86 17 -85 12 -138 593
-17 180 -17 1038 0 1137 12 75 57 227 73 244 4 6 8 16 8 24 0 8 6 28 14 45 46
106 102 300 125 437 27 163 31 208 31 386 0 188 -14 347 -45 519 -9 50 -20
115 -25 146 -4 32 -18 97 -29 145 -12 49 -26 109 -32 134 -6 25 -14 61 -19 80
-22 88 -34 206 -33 335 0 119 3 150 22 205 26 74 75 146 130 189 38 30 174 81
217 81 12 0 44 4 71 10 26 5 100 17 163 26 63 9 142 22 175 29 33 7 85 18 115
25 308 66 601 285 767 575 51 89 64 119 102 232 29 85 36 111 62 233 24 117
41 266 42 380 2 111 -1 130 -21 175 -39 83 -73 112 -197 166 -40 17 -122 37
-195 49 -41 6 -91 15 -110 20 -19 5 -84 16 -145 25 -60 9 -128 20 -150 25 -22
4 -92 16 -155 25 -138 21 -232 48 -282 80 -20 13 -58 55 -84 92 -100 143 -153
210 -220 278 -69 70 -86 85 -158 139 -52 39 -254 146 -276 146 -6 0 -18 4 -28
10 -25 14 -176 57 -262 74 -324 64 -780 27 -1100 -89 -304 -110 -462 -207
-646 -397 -194 -200 -468 -616 -577 -878 -34 -82 -40 -97 -52 -135 -101 -322
-85 -516 62 -747 l43 -68 -26 -62 c-44 -105 -50 -121 -74 -183 -71 -190 -125
-285 -327 -577 -52 -76 -100 -135 -105 -132 -5 3 -6 13 -3 23 4 9 15 63 25
121 10 58 28 148 38 200 30 143 52 322 55 440 l2 105 -41 80 c-88 169 -119
308 -111 490 5 110 12 159 37 255 57 214 154 442 289 677 22 40 41 77 41 83 0
7 -368 10 -1157 10 -1266 0 -1212 2 -1323 -58 -121 -66 -212 -205 -239 -369
-10 -55 -11 -566 -8 -2205 3 -1173 1 -2176 -3 -2228 -9 -101 -30 -161 -101
-303 -22 -43 -49 -102 -60 -130 -11 -29 -24 -61 -29 -72 -20 -43 -48 -138 -96
-325 -37 -141 -44 -180 -64 -348 -9 -84 -21 -156 -24 -160 -10 -9 -183 80
-281 144 -160 105 -289 264 -359 439 -61 157 -71 210 -70 400 0 151 3 183 28
285 32 135 106 294 217 470 102 162 119 199 119 256 -1 94 -61 170 -154 195
-33 9 -51 8 -96 -6 -30 -9 -73 -20 -94 -26 -103 -26 -286 -132 -428 -247 -69
-57 -195 -180 -272 -267 -51 -56 -157 -217 -199 -300 -69 -136 -95 -207 -138
-365 -64 -238 -66 -696 -5 -920 37 -135 46 -161 86 -260 101 -244 223 -432
393 -604 195 -196 348 -299 632 -427 11 -5 43 -16 70 -24 87 -28 81 -25 65
-35 -22 -14 -1239 -13 -1337 1 -88 12 -174 39 -235 74 -103 58 -210 180 -242
276 -37 109 -38 192 -40 3259 -1 3545 5 4379 36 4525 9 46 20 60 147 183 75
73 190 181 256 240 66 58 134 120 150 138 17 17 77 71 135 120 58 49 119 102
136 119 16 16 72 66 124 110 51 44 130 114 174 156 45 42 99 91 121 110 22 18
88 76 146 129 58 52 139 124 180 159 41 35 99 86 129 115 30 28 89 80 130 116
90 78 139 122 240 215 147 135 257 233 340 305 47 40 87 76 90 79 3 3 28 26
55 50 28 24 93 83 145 131 52 48 124 111 159 140 35 30 94 81 130 115 36 33
116 103 176 155 61 52 133 116 160 143 28 27 66 61 85 76 19 14 87 73 150 131
63 58 142 128 175 155 33 27 65 54 71 60 40 37 186 168 219 196 22 18 94 83
160 144 66 60 125 113 130 117 25 18 105 89 170 149 62 58 288 260 369 329 16
14 116 104 222 201 169 154 252 217 290 219 5 0 30 -13 55 -29z m2324 -5041
c153 -30 155 -30 230 -58 209 -78 378 -219 520 -433 139 -208 194 -243 470
-293 50 -9 106 -21 125 -26 19 -5 71 -14 114 -21 48 -8 86 -19 97 -30 9 -9 23
-43 30 -76 17 -78 42 -126 97 -185 69 -74 175 -138 230 -138 34 0 47 -17 35
-42 -6 -13 -21 -50 -33 -83 -78 -218 -196 -359 -375 -445 -161 -77 -245 -93
-470 -88 -154 4 -189 7 -245 27 -130 44 -196 85 -338 207 -102 88 -142 104
-199 77 -20 -10 -51 -37 -67 -61 -26 -36 -31 -53 -31 -102 0 -51 5 -65 38
-113 47 -68 117 -134 219 -207 81 -57 92 -74 58 -85 -27 -9 -147 -100 -183
-139 -116 -129 -175 -292 -184 -512 -6 -149 4 -257 46 -464 16 -80 36 -183 46
-230 9 -47 21 -105 27 -130 49 -216 76 -671 48 -836 -54 -320 -158 -591 -315
-824 -130 -192 -150 -219 -164 -220 -12 0 -13 25 -7 153 4 83 11 193 16 244
23 223 -18 323 -132 323 -91 0 -124 -35 -167 -175 -43 -138 -71 -318 -93 -585
-19 -243 -16 -955 5 -1175 42 -434 72 -596 120 -657 14 -18 53 -29 172 -49 96
-16 149 -42 210 -103 67 -67 97 -131 126 -265 7 -33 6 -47 -3 -52 -21 -13
-685 -10 -737 3 -126 31 -215 144 -261 330 -31 125 -70 266 -80 293 -5 11 -16
54 -25 95 -9 41 -23 94 -31 118 -15 45 -92 347 -113 442 -7 30 -23 98 -36 150
-13 52 -35 145 -50 205 -14 61 -29 124 -34 140 -5 17 -17 66 -26 110 -9 44
-20 96 -25 115 -5 19 -13 55 -19 80 -36 156 -45 192 -67 259 -41 128 -95 177
-189 169 -88 -7 -145 -68 -159 -172 -6 -45 7 -161 34 -301 11 -55 25 -127 31
-160 10 -57 41 -202 60 -290 31 -137 39 -201 28 -221 -13 -25 -68 -60 -364
-232 -71 -41 -168 -99 -214 -129 -46 -30 -85 -52 -88 -50 -2 3 23 61 55 128
49 101 63 142 77 224 9 55 21 122 26 148 21 111 -7 374 -51 482 -5 11 -12 31
-16 45 -4 14 -22 58 -40 98 -19 41 -34 75 -34 78 0 23 -122 179 -194 248 -172
164 -404 265 -646 282 -215 15 -426 -40 -587 -153 -48 -34 -67 -55 -87 -97
-38 -79 -34 -109 22 -169 22 -23 33 -27 82 -27 32 0 70 4 86 9 162 49 247 64
364 64 102 0 125 -4 203 -31 117 -40 186 -83 263 -165 93 -98 155 -199 205
-337 21 -57 24 -82 23 -205 0 -156 -18 -243 -76 -365 -82 -173 -194 -292 -415
-439 -152 -102 -192 -138 -220 -197 -14 -29 -14 -34 9 -80 30 -61 74 -91 141
-98 29 -4 257 -8 507 -10 344 -2 464 -6 490 -16 19 -7 54 -20 78 -29 50 -18
144 -99 177 -151 27 -43 76 -180 69 -192 -7 -12 -2649 -10 -2715 2 -118 22
-202 90 -264 214 -22 43 -54 91 -73 107 -38 34 -53 35 -227 14 -505 -61 -977
96 -1320 440 -60 60 -133 144 -162 186 -172 251 -253 519 -253 835 0 215 18
326 77 474 49 124 128 284 150 301 17 15 17 1 -2 -163 -15 -141 -8 -296 21
-443 67 -343 269 -653 559 -860 94 -67 244 -149 330 -179 28 -10 59 -21 70
-26 18 -8 66 -21 188 -49 26 -6 105 -11 175 -11 110 0 131 3 160 20 54 33 62
67 63 267 0 255 22 431 72 603 137 465 318 778 677 1169 134 146 403 388 757
681 56 47 144 121 196 165 51 44 107 91 124 105 88 72 305 271 429 395 285
284 563 629 696 863 27 48 148 290 148 297 0 2 11 28 24 57 13 29 30 72 36 94
7 23 23 55 35 70 l23 28 33 -27 c37 -30 188 -133 229 -156 32 -18 85 -44 130
-64 149 -67 371 -73 499 -15 83 39 170 99 214 148 123 137 217 449 217 719 0
211 -54 569 -136 911 -40 164 -59 213 -106 265 -29 34 -35 37 -72 32 -29 -4
-49 -15 -70 -38 l-29 -33 7 -155 c4 -86 11 -226 16 -311 22 -370 6 -708 -42
-885 -35 -129 -67 -185 -129 -227 -101 -68 -243 -18 -503 176 -44 33 -123 102
-176 155 -129 129 -164 197 -163 321 1 77 13 136 43 205 4 11 14 36 22 55 14
37 115 239 165 329 85 152 282 402 385 487 69 58 203 154 213 154 2 0 44 19
92 43 125 60 235 94 418 127 144 26 397 26 530 0z"/>
<path d="M8915 13780 c-130 -16 -237 -117 -285 -272 -82 -265 63 -681 270
-777 45 -20 71 -25 145 -25 81 -1 95 2 143 28 134 74 203 225 204 445 0 73 -5
113 -20 157 -11 32 -23 71 -26 87 -13 56 -58 138 -116 210 -89 111 -195 161
-315 147z"/>
<path d="M10025 13784 c-55 -14 -136 -64 -190 -119 -89 -90 -147 -211 -187
-395 -5 -25 -7 -93 -3 -151 5 -98 13 -129 54 -232 17 -44 101 -127 156 -155
42 -21 64 -25 140 -26 82 -1 95 2 144 29 72 40 158 136 205 231 52 106 53 109
71 191 18 80 16 259 -3 328 -32 116 -117 231 -200 274 -39 20 -148 35 -187 25z"/>
<path d="M10790 12969 c-89 -25 -193 -92 -267 -172 -212 -232 -203 -673 16
-770 50 -22 172 -25 243 -7 135 36 272 195 333 385 23 71 27 263 7 332 -18 60
-90 163 -136 194 -35 24 -118 50 -149 48 -7 0 -28 -5 -47 -10z"/>
<path d="M8115 12963 c-39 -10 -114 -74 -143 -121 -44 -73 -57 -133 -57 -267
0 -105 4 -131 29 -204 65 -193 208 -333 370 -361 153 -27 255 25 320 165 11
22 23 48 27 57 17 35 10 215 -12 296 -26 96 -41 129 -100 218 -95 141 -207
215 -339 220 -41 2 -84 0 -95 -3z"/>
<path d="M9368 12535 c-75 -21 -165 -74 -226 -135 -31 -30 -106 -127 -167
-215 -89 -131 -134 -185 -245 -295 -189 -187 -250 -268 -291 -386 -27 -80 -30
-266 -4 -339 41 -116 122 -206 234 -257 51 -24 83 -31 156 -35 93 -6 107 -3
280 52 22 7 74 22 115 34 41 13 93 28 115 34 23 7 98 11 175 11 108 -1 151 -6
215 -24 44 -12 89 -24 100 -27 11 -3 29 -8 40 -13 33 -14 176 -52 238 -63 77
-15 204 2 278 36 65 31 157 117 184 173 46 98 55 137 55 249 0 125 -12 175
-64 268 -33 59 -170 227 -185 227 -3 0 -48 42 -98 93 -64 64 -122 137 -192
242 -98 149 -173 238 -241 286 -33 24 -123 63 -201 88 -46 14 -211 12 -271 -4z"/>
<path d="M12100 9596 c-116 -33 -187 -107 -220 -228 -16 -60 0 -131 38 -170
31 -33 72 -36 165 -12 33 8 101 17 151 18 50 2 103 8 117 14 76 31 100 162 47
252 -14 25 -37 55 -50 67 -64 59 -165 83 -248 59z"/>
</g>
</svg>