<svg xmlns="http://www.w3.org/2000/svg" viewBox="0 0 1114 964">
<g transform="translate(0.000000,964.000000) scale(0.100000,-0.100000)"
fill="currentColor" stroke="none">
<path d="M4085 8643 c-98 -22 -186 -73 -265 -153 -114 -115 -150 -203 -150
-365 0 -49 -4 -76 -14 -84 -10 -8 -327 -11 -1198 -11 -723 0 -1204 -4 -1235
-10 -72 -13 -135 -45 -194 -98 -67 -60 -102 -113 -133 -203 l-26 -76 0 -599
c0 -499 3 -607 15 -648 18 -58 79 -183 103 -209 30 -34 97 -75 165 -102 36
-15 71 -33 77 -40 14 -17 17 -2432 3 -2445 -4 -5 -46 -11 -92 -13 -78 -5 -87
-8 -140 -44 -97 -68 -131 -159 -131 -349 0 -125 21 -241 54 -291 27 -41 104
-91 158 -103 24 -5 59 -13 78 -17 l35 -9 3 -906 c2 -891 2 -907 -17 -913 -11
-3 -144 -8 -296 -10 -275 -3 -277 -3 -314 -28 -53 -35 -75 -85 -66 -153 8 -64
45 -108 104 -124 26 -7 1589 -9 4887 -8 4713 3 4850 4 4880 22 39 24 53 46 60
99 9 67 -10 121 -57 158 l-41 32 -283 6 c-183 4 -288 10 -295 17 -15 15 -14
1792 1 1811 7 7 32 13 61 13 53 0 92 16 151 62 75 60 99 142 99 340 0 170 -14
227 -69 296 -19 23 -58 56 -86 72 -45 26 -62 30 -128 30 -65 0 -77 3 -81 18
-2 9 -6 555 -7 1212 -3 1148 -2 1196 16 1216 10 12 38 27 63 34 25 7 75 32
112 55 62 41 69 49 106 128 78 166 73 112 70 804 l-3 620 -44 89 c-72 144
-175 228 -314 255 -29 5 -531 9 -1233 9 -657 0 -1185 4 -1188 9 -3 4 -6 33 -7
62 -1 68 -23 183 -45 234 -22 54 -95 155 -140 194 -20 18 -76 52 -123 74 l-86
42 -1390 1 c-764 1 -1399 0 -1410 -3z m2727 -299 c44 -8 109 -60 144 -115 l24
-39 0 -817 c0 -904 0 -896 -61 -959 -67 -69 43 -65 -1426 -64 -730 0 -1347 4
-1370 9 -46 9 -106 49 -125 84 -36 64 -37 99 -38 931 l0 818 35 48 c34 46 60
68 115 97 20 10 278 13 1345 13 726 0 1337 -3 1357 -6z m2916 -671 l42 -42 0
-584 0 -584 -23 -34 c-12 -18 -38 -44 -56 -56 l-34 -23 -1206 2 -1206 3 -3 23
c-2 13 4 42 12 64 15 35 16 112 16 655 -1 498 1 618 12 624 7 5 532 9 1167 9
635 0 1156 2 1158 4 12 12 84 -25 121 -61z m-6073 40 c13 -12 15 -96 15 -611
0 -576 3 -629 31 -699 9 -23 10 -36 3 -43 -7 -7 -402 -10 -1215 -10 l-1204 0
-39 27 c-79 56 -74 17 -75 672 l-1 584 44 43 c25 23 57 44 73 47 15 2 551 4
1191 5 1017 0 1164 -1 1177 -15z m1650 -1683 c13 -14 15 -289 15 -2540 0
-1436 -3 -2527 -8 -2532 -5 -5 -67 -10 -138 -10 -252 -1 -320 2 -338 15 -16
12 -17 66 -18 907 0 847 1 895 18 907 10 7 34 13 55 13 26 0 54 11 96 39 79
53 86 64 114 151 21 65 24 94 23 220 0 116 -4 152 -17 179 -9 19 -17 38 -17
42 0 18 -53 86 -87 111 -58 44 -131 60 -283 61 -74 0 -156 -3 -182 -7 -62 -9
-62 2 1 69 27 28 63 80 81 115 34 68 36 114 5 169 -26 47 -115 241 -115 251 0
6 -4 18 -10 28 -5 9 -21 53 -36 97 -14 44 -39 107 -54 140 -16 33 -32 74 -36
90 -18 78 -131 197 -234 246 -80 39 -216 85 -290 99 -25 4 -92 19 -150 31 -96
21 -130 23 -405 24 -319 0 -348 -3 -601 -61 -182 -42 -396 -152 -449 -233 -14
-20 -43 -79 -65 -131 -23 -52 -47 -108 -55 -125 -7 -16 -20 -52 -28 -80 -13
-43 -34 -101 -90 -240 -7 -16 -29 -61 -49 -100 -53 -102 -55 -127 -18 -203 16
-35 55 -90 86 -123 32 -32 55 -60 53 -62 -2 -1 -125 0 -274 3 l-270 5 -3 1214
c-1 727 2 1218 7 1225 7 8 524 11 1880 11 1664 0 1872 -2 1886 -15z m4083 6
c19 -6 22 -14 23 -64 4 -260 1 -2373 -3 -2377 -11 -11 -1212 -5 -1223 6 -6 6
-9 53 -8 109 2 174 29 243 97 255 49 9 147 13 331 14 l170 1 31 28 c45 40 50
64 18 101 l-26 31 -292 0 c-274 0 -294 1 -310 19 -12 13 -15 27 -10 45 l6 26
277 1 c152 1 283 1 292 0 9 -1 33 17 53 39 39 43 39 56 -1 92 -17 16 -52 18
-324 20 l-304 3 -3 30 c-5 60 -11 58 316 59 l299 1 27 33 28 32 -20 38 -19 37
-309 3 c-344 2 -336 1 -325 69 l6 38 308 1 307 0 25 24 c32 30 31 48 -5 87
l-29 33 -303 2 -303 3 -3 32 c-2 18 2 42 8 53 11 21 16 21 310 19 164 0 303 2
309 6 6 3 18 20 27 36 14 28 14 33 -1 55 -8 13 -16 25 -18 26 -1 1 -144 5
-317 8 l-315 5 -3 35 c-1 19 1 40 5 46 6 8 103 13 313 17 168 3 306 6 307 6 1
1 9 15 17 33 20 39 20 58 0 86 -15 22 -16 22 -319 22 -293 0 -305 1 -315 20
-12 23 -3 70 14 70 6 0 139 0 296 0 157 1 291 5 299 9 8 5 22 26 31 47 17 35
17 40 2 63 -39 61 -59 69 -194 82 -153 15 -517 5 -578 -16 -62 -21 -155 -96
-182 -147 l-23 -43 -5 -925 -5 -925 -322 -3 c-300 -2 -322 -1 -327 15 -22 79
-26 264 -6 288 7 9 36 31 64 50 90 60 221 218 286 346 43 84 92 267 111 413
17 131 -14 322 -83 520 -29 83 -113 226 -171 291 -59 66 -221 176 -297 200
-81 26 -234 24 -322 -5 -88 -28 -234 -133 -308 -221 -84 -101 -162 -266 -194
-414 -10 -44 -22 -99 -27 -122 -13 -61 -11 -244 5 -348 16 -104 61 -245 107
-337 42 -84 131 -210 171 -242 18 -15 57 -46 87 -69 89 -69 91 -74 81 -202 -5
-61 -14 -123 -19 -138 l-10 -27 -302 0 -301 0 -56 -25 c-84 -39 -119 -70 -154
-138 -31 -59 -33 -68 -36 -200 -4 -146 13 -264 47 -316 22 -35 129 -111 156
-111 32 0 92 -27 98 -44 4 -9 6 -416 7 -905 0 -649 -3 -891 -11 -897 -6 -3
-115 -6 -242 -5 -177 0 -234 4 -244 14 -11 11 -13 458 -13 2542 0 1513 4 2531
9 2534 14 9 3732 5 3759 -3z m-2374 -520 c41 -8 86 -20 98 -27 13 -6 58 -48
101 -93 147 -152 227 -367 227 -609 0 -240 -81 -453 -226 -595 -101 -100 -141
-117 -274 -117 -90 0 -111 3 -148 23 -57 30 -178 146 -217 207 -39 61 -89 189
-107 270 -20 94 -17 354 5 445 40 166 86 261 168 345 32 33 72 75 90 92 19 21
53 40 92 52 76 24 95 25 191 7z m-3463 -777 c85 -8 246 -38 419 -77 29 -6 142
-104 152 -133 10 -27 0 -47 -33 -64 -48 -25 -82 -19 -135 25 -26 21 -66 44
-88 49 -23 5 -68 20 -101 31 -143 52 -297 55 -443 10 -68 -21 -73 -21 -212 7
-110 22 -204 19 -270 -7 -64 -25 -123 -45 -163 -54 -16 -4 -44 -23 -62 -43
-34 -37 -34 -37 -82 -26 -72 17 -103 31 -103 46 0 8 19 31 43 53 23 21 49 48
57 60 14 20 105 55 194 74 22 5 64 14 91 21 154 35 530 50 736 28z m125 -290
c43 -12 100 -25 126 -29 59 -11 69 -16 61 -35 -17 -45 -382 -90 -638 -79 -124
5 -482 48 -493 59 -13 13 12 35 50 45 24 7 66 18 93 25 93 25 130 26 216 4
102 -25 224 -22 319 8 84 28 168 28 266 2z m-1230 -189 c54 -28 115 -55 134
-61 257 -76 506 -106 790 -95 304 12 622 76 727 145 25 17 61 35 80 42 29 9
37 8 54 -7 21 -19 60 -100 91 -189 12 -33 34 -88 49 -122 53 -117 58 -106 -72
-184 -102 -61 -123 -71 -219 -102 -179 -58 -255 -73 -458 -93 -182 -18 -630
-14 -727 5 -27 6 -90 18 -140 27 -249 44 -459 120 -553 199 -38 32 -39 50 -8
119 13 29 34 84 45 122 12 38 35 97 51 131 17 35 30 74 30 88 0 14 6 25 13 25
8 0 58 -23 113 -50z m4516 -431 c10 -19 18 -54 18 -79 0 -25 5 -62 10 -82 13
-46 1 -75 -36 -84 -18 -5 -32 0 -50 17 -25 23 -25 25 -18 129 4 73 11 110 22
123 21 23 33 18 54 -24z m-2175 -509 c17 0 53 -82 53 -122 0 -20 -8 -56 -19
-80 l-18 -43 -74 2 c-41 1 -854 2 -1807 2 l-1732 1 -9 23 c-5 12 -16 45 -24
72 -9 31 -15 41 -16 27 -1 -31 -21 -17 -21 15 0 18 4 24 15 19 9 -3 15 0 15 9
0 7 15 29 33 47 l32 33 1780 -2 c979 -2 1785 -3 1792 -3z m4959 -10 c37 -31
45 -66 33 -139 -6 -38 -15 -74 -19 -80 -5 -9 -485 -12 -1811 -12 l-1804 0 -11
23 c-33 66 -42 133 -23 171 29 56 -103 52 1834 51 1456 -1 1788 -4 1801 -14z
m84 -80 c0 -11 -7 -20 -15 -20 -15 0 -21 21 -8 33 12 13 23 7 23 -13z m-5323
-452 c10 -8 13 -193 13 -914 0 -863 -1 -904 -18 -913 -12 -6 -555 -9 -1501 -8
-1399 2 -1483 3 -1495 19 -11 14 -13 202 -14 904 -1 490 3 894 8 903 8 15 131
17 1501 18 1040 1 1497 -1 1506 -9z m4938 -11 c3 -12 4 -425 3 -917 l-3 -895
-90 -6 c-49 -4 -720 -6 -1491 -5 -1171 1 -1404 3 -1417 15 -16 12 -17 88 -17
910 0 655 3 900 11 908 9 9 405 12 1505 12 l1494 0 5 -22z"/>
<path d="M5723 8124 c-43 -21 -120 -99 -143 -143 -47 -94 -40 -272 15 -351 40
-58 75 -80 127 -80 87 0 169 81 218 215 17 48 16 170 -2 223 -38 111 -138 175
-215 136z"/>
<path d="M5115 8111 c-89 -55 -125 -120 -125 -227 0 -184 147 -369 269 -339
41 10 99 74 121 132 25 66 25 125 1 223 -25 102 -33 119 -77 163 -66 66 -133
83 -189 48z"/>
<path d="M4705 7681 c-74 -45 -100 -106 -91 -211 11 -125 76 -227 173 -271
104 -48 188 -3 224 119 11 37 10 54 -6 120 -25 108 -46 152 -93 194 -78 70
-147 87 -207 49z"/>
<path d="M6080 7667 c-98 -58 -170 -199 -157 -308 4 -28 18 -70 31 -94 108
-183 351 -48 372 207 6 70 4 82 -19 130 -50 101 -130 124 -227 65z"/>
<path d="M5405 7464 c-79 -21 -134 -69 -237 -209 -20 -27 -75 -90 -122 -139
-115 -120 -156 -198 -156 -294 0 -109 27 -156 118 -203 87 -44 130 -44 317 6
119 32 227 30 340 -6 40 -13 106 -24 153 -27 75 -3 87 -1 126 22 84 49 114
106 119 223 3 87 -34 152 -168 295 -60 64 -137 152 -171 195 -81 104 -129 133
-225 138 -41 2 -83 2 -94 -1z"/>
<path d="M6892 5408 c-36 -45 -16 -130 34 -142 36 -9 59 14 75 76 10 38 10 49
0 62 -16 19 -94 22 -109 4z"/>
<path d="M6714 5300 c-26 -10 -68 -75 -61 -95 7 -16 86 -30 122 -21 22 6 25
12 25 51 0 34 -5 47 -22 59 -25 18 -34 19 -64 6z"/>
<path d="M7103 5293 c-37 -33 -38 -60 -3 -93 18 -17 43 -30 57 -30 24 0 73 43
73 65 0 20 -71 75 -98 75 -5 0 -18 -8 -29 -17z"/>
<path d="M6828 5163 c-17 -20 -38 -77 -38 -103 0 -10 10 -20 24 -24 13 -3 31
-9 39 -12 9 -3 25 4 36 15 23 23 29 88 11 122 -13 24 -52 25 -72 2z"/>
<path d="M7022 5170 c-45 -11 -56 -23 -55 -65 1 -46 18 -65 58 -65 37 0 50 12
58 54 5 29 -9 87 -21 85 -4 -1 -22 -5 -40 -9z"/>
<path d="M7210 5075 c-19 -10 -27 -24 -31 -57 -9 -59 -3 -68 43 -68 78 0 113
75 56 123 -24 20 -35 21 -68 2z"/>
<path d="M6612 5055 c-7 -14 -12 -41 -12 -59 0 -26 5 -35 23 -40 60 -16 90 6
96 71 2 28 -2 35 -24 43 -45 17 -71 12 -83 -15z"/>
<path d="M6792 4949 c-17 -7 -22 -16 -22 -47 0 -59 16 -74 75 -70 l50 3 3 40
c2 22 -3 48 -10 57 -15 20 -64 29 -96 17z"/>
<path d="M6987 4954 c-4 -4 -7 -27 -7 -50 0 -38 10 -56 33 -60 4 -1 10 -3 15
-4 19 -6 49 -4 65 3 15 7 17 18 15 60 l-3 52 -55 3 c-31 2 -59 0 -63 -4z"/>
<path d="M7238 4863 c-19 -5 -23 -16 -33 -85 l-6 -48 49 0 c58 0 76 16 76 66
0 49 -39 79 -86 67z"/>
<path d="M6581 4846 c-7 -8 -11 -35 -9 -63 l3 -48 49 -3 c27 -2 52 1 55 7 4 6
4 34 1 63 l-5 53 -41 3 c-27 2 -45 -2 -53 -12z"/>
<path d="M6987 4753 c-9 -8 -9 -76 -1 -97 8 -20 66 -31 92 -17 13 7 21 24 24
48 8 58 -5 73 -61 73 -26 0 -51 -3 -54 -7z"/>
<path d="M6780 4709 c0 -63 13 -79 64 -79 49 0 56 9 56 70 0 43 -10 50 -76 50
l-44 0 0 -41z"/>
<path d="M6618 4629 c-20 -11 -24 -62 -8 -103 8 -21 15 -25 47 -22 29 1 41 8
50 26 37 72 -23 138 -89 99z"/>
<path d="M7180 4581 c0 -61 15 -75 71 -66 33 6 43 13 54 38 23 56 4 77 -72 77
l-53 0 0 -49z"/>
<path d="M6831 4536 c-7 -8 -16 -28 -21 -46 -7 -25 -5 -35 11 -51 41 -41 106
-4 95 55 -10 49 -59 74 -85 42z"/>
<path d="M6977 4544 c-12 -13 -7 -91 7 -103 17 -15 71 -4 91 19 10 11 15 31
13 52 -3 32 -4 33 -53 36 -28 2 -54 0 -58 -4z"/>
<path d="M7160 4423 c-40 -8 -60 -32 -60 -75 0 -26 5 -41 16 -45 27 -10 83 24
101 63 17 35 17 36 -2 50 -10 8 -21 13 -24 13 -3 -1 -17 -4 -31 -6z"/>
<path d="M6686 4408 c-21 -12 -21 -67 0 -96 18 -26 74 -30 98 -6 21 21 20 67
-1 86 -22 19 -76 28 -97 16z"/>
<path d="M6923 4333 c-25 -5 -31 -17 -39 -89 l-7 -54 64 6 c35 4 64 7 65 8 0
1 -2 30 -5 66 -6 61 -8 65 -31 66 -14 1 -35 0 -47 -3z"/>
</g>
</svg>