<svg xmlns="http://www.w3.org/2000/svg" viewBox="0 0 2000 1490">
<g transform="translate(0.000000,1490.000000) scale(0.100000,-0.100000)"
fill="currentColor" stroke="none">
<path d="M12626 14404 c-55 -30 -159 -85 -230 -123 -265 -138 -1168 -669
-1566 -919 -196 -124 -440 -285 -552 -363 -53 -38 -101 -69 -105 -69 -5 0 -14
15 -21 34 -10 27 -10 46 2 97 32 141 44 403 29 683 l-6 129 -576 -6 c-594 -7
-811 -16 -858 -39 -53 -25 -64 -129 -38 -335 35 -267 167 -794 322 -1290 19
-62 33 -117 31 -122 -1 -5 -75 -67 -163 -139 -387 -314 -729 -605 -1090 -926
-276 -246 -555 -506 -530 -493 12 6 194 116 385 232 74 45 230 140 345 210
1429 871 2907 1817 3625 2320 372 261 702 522 900 712 117 112 258 276 266
310 8 30 -4 104 -19 124 -25 34 -50 30 -151 -27z"/>
<path d="M12920 14356 c0 -13 235 -325 374 -496 428 -528 726 -861 1135 -1270
509 -509 894 -829 1264 -1053 149 -89 462 -246 612 -306 l100 -40 -47 0 -47
-1 -2 -342 c0 -189 -2 -356 -2 -373 -2 -60 13 -1053 18 -1195 3 -80 10 -318
15 -530 16 -630 20 -751 25 -845 3 -49 10 -193 15 -320 23 -539 63 -1081 105
-1435 35 -290 85 -529 131 -626 24 -52 50 -82 60 -71 6 6 6 456 0 466 -2 3 -7
175 -10 381 -4 206 -9 436 -11 510 -3 74 -12 394 -20 710 -8 316 -19 681 -25
810 -5 129 -14 352 -20 495 -6 143 -15 321 -20 395 -5 74 -12 191 -15 260 -13
288 -62 787 -94 965 -18 95 -21 152 -21 424 0 294 1 313 18 306 65 -27 476
-153 612 -187 155 -38 175 -41 328 -43 l162 -3 -59 66 c-152 171 -730 729
-1021 987 -594 528 -989 832 -1636 1263 -567 377 -1619 997 -1809 1066 -22 8
-57 21 -77 30 -32 14 -38 14 -38 2z"/>
<path d="M8687 11002 c-16 -18 -18 -50 -47 -992 -29 -949 -32 -1164 -32 -2100
0 -786 4 -992 28 -1395 28 -487 96 -815 169 -815 12 0 25 471 55 2085 11 619
6 2343 -9 2550 -18 270 -22 307 -37 408 -25 169 -41 223 -79 261 -21 20 -28
20 -48 -2z"/>
<path d="M13265 10878 c-7 -44 -43 -189 -72 -288 -64 -219 -157 -449 -246
-605 -146 -258 -391 -582 -614 -815 -65 -68 -91 -102 -88 -116 78 -368 168
-591 322 -795 125 -167 266 -279 513 -411 136 -73 435 -186 504 -191 l31 -2 3
118 c2 107 1 117 -15 117 -10 0 -72 18 -138 40 -133 45 -325 136 -425 201 -93
62 -236 209 -306 316 -61 91 -175 313 -213 409 l-19 51 90 109 c188 225 382
498 473 664 48 88 173 341 220 445 26 60 27 60 40 35 25 -48 56 -155 71 -250
16 -97 14 -193 -7 -314 -8 -44 -7 -61 1 -66 7 -4 278 -10 604 -14 325 -3 634
-9 686 -12 l95 -6 0 -96 c0 -116 18 -171 73 -224 40 -40 118 -82 170 -93 17
-4 32 -13 32 -20 0 -26 -113 -238 -181 -340 -73 -109 -194 -240 -270 -292 -76
-52 -169 -94 -268 -121 -89 -24 -112 -26 -306 -26 -126 -1 -240 4 -285 12 -80
14 -293 60 -316 69 -12 4 -14 -24 -14 -160 0 -191 -15 -169 135 -197 313 -58
650 -50 888 21 168 50 289 124 425 261 146 148 217 252 350 518 64 129 119
237 123 240 10 9 65 150 113 290 40 117 126 420 126 442 0 4 -432 8 -959 8
l-959 0 -6 38 c-3 20 -8 73 -11 117 -9 115 -50 313 -91 435 -49 147 -244 540
-268 540 -3 0 -7 -19 -11 -42z"/>
<path d="M13570 10716 l-42 -126 32 -67 c85 -179 134 -355 156 -560 l7 -63
115 0 115 0 -6 108 c-6 113 -26 217 -58 317 -41 122 -174 379 -252 483 l-25
33 -42 -125z"/>
<path d="M13525 9365 c-56 -20 -109 -81 -131 -148 -15 -48 -16 -64 -6 -108 29
-124 135 -199 240 -170 56 16 116 71 138 126 25 65 16 161 -19 214 -53 80
-143 115 -222 86z"/>
<path d="M11975 8819 c-125 -100 -350 -289 -469 -394 -117 -103 -365 -354
-408 -411 -18 -25 -61 -79 -96 -121 -312 -374 -546 -786 -626 -1099 -18 -70
-21 -189 -6 -261 23 -115 38 -179 45 -195 9 -23 1 -23 -119 2 -128 27 -213 60
-295 114 -79 53 -180 149 -218 208 -15 24 -37 53 -50 64 -24 24 -41 90 -26
105 5 5 50 -7 110 -31 130 -50 237 -77 339 -86 96 -8 114 3 114 69 0 23 3 58
6 78 l6 36 -63 12 c-162 31 -432 111 -572 172 -93 39 -216 126 -268 188 l-31
36 7 -70 c26 -274 88 -491 182 -633 128 -192 320 -359 521 -451 169 -77 338
-117 642 -153 192 -23 210 -23 1310 -23 l1115 0 22 90 c12 50 22 102 23 116
l0 27 -119 7 -119 7 -7 77 c-29 357 -76 548 -177 719 -42 71 -225 257 -300
305 -108 68 -279 147 -320 147 -11 0 -20 -10 -24 -27 -3 -16 -14 -60 -25 -99
-10 -38 -19 -75 -19 -81 0 -6 51 -36 113 -66 138 -68 255 -160 338 -264 75
-94 102 -150 135 -280 25 -100 48 -348 38 -402 -6 -28 -6 -28 -112 -35 -58 -3
-439 -6 -846 -6 -588 1 -753 4 -798 14 -136 33 -236 105 -285 205 -26 52 -28
64 -27 181 0 103 5 145 28 235 99 391 332 733 827 1221 202 197 501 463 642
568 20 16 37 33 37 40 0 20 -63 226 -69 225 -3 0 -51 -36 -106 -80z"/>
<path d="M13415 7537 c-2 -7 -6 -214 -8 -462 -3 -261 -10 -486 -17 -535 -26
-194 -51 -331 -79 -440 -17 -63 -28 -116 -25 -119 8 -9 189 -9 205 0 9 5 19
21 22 36 3 16 17 82 31 148 63 288 86 550 86 975 0 168 -4 310 -8 316 -12 20
-203 93 -207 81z"/>
<path d="M13846 6878 c-61 -5 -112 -10 -114 -12 -2 -2 -12 -64 -22 -137 -75
-526 -100 -712 -100 -729 0 -10 9 -21 20 -25 11 -3 131 -7 266 -8 l248 -1 17
54 c9 30 28 92 42 138 l25 82 -149 0 -149 0 0 33 c0 17 9 145 20 282 27 341
26 328 15 330 -5 1 -59 -2 -119 -7z"/>
<path d="M2440 5585 l0 -785 100 0 100 0 0 364 0 364 55 53 c72 70 133 99 209
99 69 0 120 -24 154 -75 48 -69 52 -105 52 -467 l0 -338 100 0 100 0 0 363 c0
392 -6 450 -55 533 -110 187 -392 212 -560 48 -25 -24 -48 -44 -50 -44 -3 0
-5 151 -5 335 l0 335 -100 0 -100 0 0 -785z"/>
<path d="M1717 5856 c-103 -99 -187 -187 -187 -193 0 -10 25 -13 89 -13 l90 0
3 -327 c3 -322 3 -329 27 -382 29 -64 96 -121 172 -146 75 -25 233 -17 314 16
l60 24 3 97 3 97 -55 -25 c-69 -31 -161 -49 -209 -40 -49 9 -91 47 -105 94 -8
26 -12 133 -12 316 l0 276 165 0 165 0 0 90 0 90 -165 0 -164 0 -3 104 -3 104
-188 -182z"/>
<path d="M3961 5850 c-112 -17 -191 -59 -268 -144 -92 -101 -136 -225 -136
-386 0 -165 44 -284 147 -397 98 -107 192 -143 375 -143 133 0 230 22 326 73
l60 32 3 98 c1 53 1 97 -2 97 -3 0 -31 -16 -63 -35 -92 -56 -181 -80 -298 -80
-87 0 -107 4 -155 26 -30 14 -69 38 -87 53 -40 33 -90 134 -99 199 l-6 47 367
0 368 0 -6 83 c-12 155 -56 264 -144 358 -89 96 -234 141 -382 119z m166 -195
c83 -25 138 -96 157 -202 l6 -33 -264 0 -264 0 10 38 c46 168 188 247 355 197z"/>
<path d="M19016 5288 c-20 -101 -59 -292 -86 -425 -28 -134 -73 -354 -100
-490 -28 -137 -53 -261 -56 -276 -4 -21 -11 -27 -22 -24 -10 3 -64 18 -122 35
-177 52 -288 65 -478 59 -260 -8 -445 -56 -662 -169 -165 -86 -257 -155 -410
-308 -241 -240 -374 -486 -444 -817 -86 -408 -40 -727 140 -979 96 -135 266
-258 429 -310 186 -59 155 -57 890 -61 l680 -4 42 208 c23 114 74 363 113 553
39 190 84 410 100 490 16 80 59 289 95 465 36 176 77 374 90 440 13 66 54 264
90 440 36 176 81 397 100 490 30 150 156 764 172 838 l6 27 -265 0 -265 0 -37
-182z m-596 -1583 c106 -26 250 -85 250 -103 0 -11 -24 -129 -95 -477 -36
-176 -77 -374 -90 -440 -13 -66 -51 -252 -85 -414 -33 -161 -60 -298 -60 -303
0 -18 -719 -3 -810 17 -106 23 -175 60 -247 133 -112 113 -157 241 -156 442 2
338 142 674 369 891 152 144 327 232 529 265 99 17 305 11 395 -11z"/>
<path d="M10405 5400 c-911 -20 -2111 -76 -2990 -140 -560 -41 -771 -58 -1190
-95 -252 -23 -235 -18 -223 -65 10 -37 13 -40 47 -40 20 0 126 -5 236 -10 371
-18 1149 -51 1655 -70 146 -6 378 -15 515 -20 2533 -100 5218 -148 7640 -136
1229 6 2139 16 2132 23 -6 5 -412 68 -762 117 -516 73 -1234 162 -1700 211
-82 8 -213 22 -290 30 -77 8 -216 21 -310 30 -93 8 -219 19 -280 25 -514 47
-1282 97 -1835 120 -666 28 -1850 37 -2645 20z"/>
<path d="M14960 4155 c-170 -27 -321 -78 -456 -153 -77 -43 -231 -157 -243
-180 -11 -22 -114 -532 -109 -538 3 -2 41 24 85 59 224 177 448 290 653 332
115 23 312 17 386 -12 178 -70 225 -210 166 -493 l-17 -84 -200 -64 c-508
-161 -696 -226 -785 -270 -375 -188 -573 -437 -596 -750 -18 -240 139 -454
376 -513 117 -29 347 -10 517 42 89 28 230 91 321 146 41 23 75 43 77 43 1 0
6 -17 10 -37 26 -140 139 -207 345 -206 139 1 226 25 406 112 114 55 144 74
148 93 41 189 57 270 53 274 -2 2 -44 -15 -93 -40 -205 -102 -294 -101 -294 3
0 21 29 182 65 357 239 1162 229 1106 229 1269 1 132 -1 144 -28 210 -62 150
-153 249 -293 319 -136 69 -229 88 -448 92 -130 2 -217 -1 -275 -11z m394
-1417 c-7 -35 -43 -209 -80 -388 -36 -179 -69 -327 -73 -330 -177 -132 -330
-192 -491 -194 -103 -1 -170 20 -230 71 -111 95 -121 275 -25 438 59 102 177
188 370 271 105 46 508 192 531 193 7 1 7 -18 -2 -61z"/>
<path d="M1542 4074 c-6 -27 -21 -96 -32 -154 -12 -58 -55 -269 -96 -470 -41
-201 -86 -419 -99 -485 -13 -66 -36 -176 -50 -245 -15 -69 -60 -289 -100 -490
-41 -201 -109 -531 -150 -735 -42 -203 -117 -568 -166 -810 -49 -242 -92 -452
-96 -467 -4 -20 -1 -27 13 -30 9 -1 130 -2 269 0 l252 3 36 182 c20 100 70
349 112 552 42 204 89 432 104 508 15 75 30 140 33 142 3 3 46 -8 96 -24 176
-58 371 -86 522 -76 398 28 721 166 1012 436 291 268 472 629 524 1048 18 145
18 211 -1 334 -30 203 -101 350 -230 483 -170 173 -384 271 -702 320 -87 13
-217 17 -674 21 l-566 5 -11 -48z m1108 -454 c281 -42 439 -161 511 -382 21
-65 24 -90 23 -233 0 -140 -4 -172 -27 -255 -62 -226 -142 -366 -301 -526
-213 -213 -427 -304 -715 -304 -163 0 -303 31 -432 96 l-47 23 44 213 c24 117
64 312 89 433 102 506 185 912 190 934 l6 24 292 -6 c161 -3 326 -11 367 -17z"/>
<path d="M4530 4115 c0 -3 -11 -58 -25 -122 -13 -65 -47 -228 -74 -363 -28
-135 -86 -423 -131 -640 -112 -548 -121 -600 -127 -790 -6 -191 5 -257 62
-370 42 -84 141 -192 218 -238 265 -160 589 -155 942 12 113 54 285 164 343
219 17 17 32 26 32 21 0 -6 -13 -78 -30 -159 -16 -81 -30 -152 -30 -157 0 -4
118 -7 262 -6 l262 3 8 40 c4 22 48 240 98 485 50 245 113 553 140 685 27 132
72 353 100 490 28 138 62 304 75 370 13 66 42 208 65 315 22 107 40 198 40
203 0 4 -118 6 -262 5 l-262 -3 -37 -180 c-37 -183 -76 -376 -218 -1070 -44
-214 -89 -437 -101 -495 l-21 -105 -79 -77 c-152 -147 -328 -242 -504 -273
-107 -18 -167 -19 -266 -1 -187 34 -265 111 -291 291 -22 148 -15 191 275
1612 31 149 56 278 56 287 0 14 -30 16 -260 16 -143 0 -260 -2 -260 -5z"/>
<path d="M7475 4110 c-6 -9 -46 -196 -110 -515 -29 -143 -188 -926 -315 -1545
-50 -245 -102 -499 -115 -565 -13 -66 -40 -199 -60 -295 -140 -678 -196 -958
-198 -978 l-2 -23 264 1 c146 0 266 2 267 3 2 2 20 91 144 697 124 609 140
683 144 688 3 2 32 -5 65 -17 211 -73 412 -100 607 -81 228 22 365 60 559 156
173 85 294 173 446 324 212 212 350 450 425 735 164 618 0 1066 -467 1284
-158 74 -343 115 -589 131 -198 13 -1057 13 -1065 0z m995 -481 c164 -15 253
-35 346 -78 175 -82 277 -247 299 -482 13 -145 -45 -400 -128 -565 -123 -241
-357 -452 -592 -532 -190 -65 -463 -69 -630 -11 -102 36 -175 73 -175 88 0 9
29 161 65 336 36 176 75 363 85 415 11 52 53 261 95 463 41 203 75 371 75 373
0 9 451 3 560 -7z"/>
<path d="M11481 4099 c-5 -13 -18 -71 -29 -129 -12 -58 -58 -283 -102 -500
-45 -217 -90 -438 -100 -490 -11 -52 -56 -273 -100 -490 -45 -217 -85 -415
-90 -440 -5 -25 -50 -245 -100 -490 -50 -245 -95 -465 -100 -490 -5 -25 -46
-223 -90 -440 -45 -217 -82 -405 -83 -418 l-2 -23 264 1 c146 0 266 2 267 3 1
1 20 92 43 202 22 110 75 367 116 570 42 204 87 423 100 488 13 65 26 121 28
124 3 2 47 -9 97 -26 279 -93 553 -101 848 -25 284 72 547 233 772 471 211
223 350 499 417 832 36 175 38 423 5 554 -86 342 -331 571 -721 673 -195 51
-265 56 -868 61 l-563 5 -9 -23z m999 -470 c167 -15 254 -35 348 -80 225 -108
333 -358 287 -663 -52 -344 -227 -628 -498 -806 -111 -73 -214 -117 -337 -142
-126 -26 -346 -21 -460 11 -113 32 -220 81 -220 100 0 9 29 161 65 336 36 176
75 363 85 415 11 52 53 261 95 463 41 203 75 371 75 373 0 9 451 3 560 -7z"/>
</g>
</svg>